<?xml version='1.0' encoding='utf-8'?>
<svg xmlns="http://www.w3.org/2000/svg" enable-background="new 0 0 799 1067" version="1.1" viewBox="0 0 799 1067">
<g stroke-width=".4">
	<path d="m384.9 21c7.6-2.8 14.9-6.9 23-8 10.7-0.7 21.7-1.1 31.8 3 9.5 3.4 19.8 4.9 28.7 9.7 4.7 2.5 9.6 4.7 13.5 8.4 3.6 3.4 7.2 6.9 10.5 10.6 4.8 5.1 7.1 11.7 10.3 17.8 2.5 4.9 4 10.2 4.6 15.6 0.2 3.9 3 6.7 5.3 9.4 4.6 6.3 11.7 11.1 13.9 19 1.4 4.1 1.8 8.6 3.7 12.5 2.4 3 6.1 4.6 9.2 6.8 4.6 3.2 8.8 7.2 12.2 11.7 3.2 4.3 7.1 8.3 8.6 13.6 0.5 0 0.9 0 1.4 0.1 1.1 4.9 3.5 9.3 5.1 14 2.5 10.1 1.9 20.6 1.9 31 0 4.9-0.6 9.8-1 14.7-1 8.5-4.8 16.4-6.3 24.8-1.5 8.6-6.6 15.7-9.9 23.6-4.3 11.2-9.7 21.9-15.9 32.1-2.6 5.2-3.1 11.2-5.6 16.4-2.7 5.9-6.6 11.3-12.1 14.9-1.3 0.8-2.6 1.5-3.9 2.2-5.4 1.9-10.8 4-15.2 7.7 5.9 0.3 11.7-1.3 16.7-4.4 7.1-1 13.5-4.6 18.8-9.3 8.1-3.2 14.3-9.5 21.2-14.6 3.7-3.1 8.9-0.8 13-2.9 4.5-2.3 7.9-6.2 11.4-9.7 3.9-3.9 6.4-8.9 9.6-13.3 2.2-3 3.9-6.4 5.6-9.8 0.7-1.2 1.4-2.4 2.1-3.5 2.8-3.1 5.1-6.6 6.4-10.5 2.1-6 5.8-11.2 7.7-17.3 3.1-10.9 9-20.8 10.9-32.1 1.7-5.8 3.7-11.6 4.4-17.6 1-4.9 2-9.8 2.9-14.6 1.1-5.8 3.7-11.2 4.7-17.1 0.9-4.9 3-9.4 3.9-14.3 0.8-4.3 1.5-8.5 3-12.6 2.3-5.8 2.9-12.3 6.3-17.7 3.7-5.8 7.5-11.8 8.9-18.7 0.8-4.2 1.2-8.5 1.2-12.8 0-4.4-3-7.9-4.4-12-2-5.2-4.8-10.9-2.9-16.6 1.1-4 4.8-6.5 8.1-8.6 4.7 0.3 9.5 0.2 14.3 0.8 5.2 1.7 10.8 2.3 15.4 5.3 4.4 3.8 8.5 8.9 8.9 15 0.6 6.7-0.2 13.3 0.3 20 0.1 3.9 3.4 6.4 5.6 9.3 2.5 2.8 4.1 6.4 7.2 8.7 5.2 1.8 11.2 1.7 15.5 5.7 3.4 2.4 3.5 7.1 6 10.1 5.8-0.9 10.7-4.8 16.6-5.1 3.8-0.2 9-0.4 10.8 3.7 2.3 5.5-0.5 11.4-0.1 17 2.1 2.1 5.5 2.4 7.9 4.1 6.7 4.3 11.5 10.7 17.5 15.8 0.3 2.3 0.5 4.7 0.6 7-12.5 0.2-25-0.3-37.5 0.3-9 1.2-18.1 2.3-27.3 1.8-7.4 0.1-10-8.3-15.9-11.3-7.8-4-17.1-8.1-25.8-4.9-1.2 0.5-2.4 1.2-3.6 1.8-0.4 10.5-4.4 20.3-6.3 30.6-1.7 6.5-4.4 12.7-4.3 19.5-2.9 13.2-0.5 27-3.8 40.2-2.5 9.8-3.2 19.9-4.5 29.8-0.2 7.5-0.7 15.1-0.2 22.5 1.6 6 3.7 12.7 0.8 18.7-3.7 4.5-9.7 6.3-14.3 9.7-5.9 4.4-12.6 7.9-17.6 13.5-3.2 3-6.5 6.3-7.7 10.7-0.8 2.7 0.7 5.2 1.8 7.6 3.4 6 4.5 13 6.7 19.5 0.8 3 2.2 6.4 0.3 9.3-3.1 5.8-6.1 11.7-10.5 16.6-6.1 7.8-12.4 15.8-20.5 21.6-4.8 4.4-10.5 7.6-16.1 11-2.3 1-2.4 4-0.8 5.7 3.1 3.9 7.1 6.9 10.5 10.5 2.4 2.9 4.8 6 7.6 8.5 11.3 9.7 22.8 19.3 35.2 27.7 6.4 3.5 11.8 8.6 18.4 11.5 5.7 2.6 11 6 16.9 8.2 3.8 1.7 8.2 3 10.7 6.6 0.9 5.2-2.2 10-4 14.6-2.7 6.9-7.3 12.7-11.2 18.9-5.5 8-11.8 15.4-18.9 22-3.6 3.8-8 6.9-10.8 11.4 0.2 4.1 1.8 8 2.9 11.9 2.2 1.8 6.3 3.2 5.6 6.8-0.8 5.5-1.7 11-1.4 16.5-1.5 3.7-2.3 7.6-2.3 11.5-0.1 7.3 0 14.7-0.7 22-0.6 5.7 0 11.5-1 17.1-1.1 6.1-6.2 10.4-7.3 16.5-2.2 14-0.3 28.2-0.3 42.3 0.1 22.3-0.2 44.7-1.8 67 0.5 7.8 1.4 15.6-0.5 23.3-1.5 2.4-3.7 4.6-3.5 7.7-0.1 5.3-0.8 10.5-1.6 15.8-0.7 5.7-1.7 11.4-3.1 17-3.1 12.7-3.2 26-0.1 38.6 0.1 1.8 0.3 3.5 0.4 5.3 0.4-0.4 0.8-0.8 1.2-1.1 0.5 2.5 1.1 4.9 1.7 7.4 1.6 6.5 3.6 13.5 8.5 18.2 8.4 0.5 16.7 2.3 25.1 2.6 0.4 0.1 1.3 0.3 1.8 0.4-0.3 0.5-0.7 1-1 1.5 6.5 0.3 12.6 2.6 18.7 4.7 7 3.6 13.7 8.1 19.1 13.9 4.6 5.2 9.9 9.9 13.3 15.9 0.3 0 0.5 0 0.8-0.1 1.6 3.7 3.8 7.2 6.3 10.4 4 5 4.8 11.6 7.7 17.2 4.4 8.9 4.3 19 4.1 28.7v0.3c-0.3 0-1 0.2-1.3 0.2-3.2 0.3-5.4 2.8-7.6 4.8-5.5 5.3-11.2 10.9-18.5 13.5-6.9 2.5-13.7 5.8-21.1 6.2-4.1 0.3-8.1 0.7-12.1 1.5-1.2 0.2-2.3 0.5-3.5 0.6-9.8 1-19.5 3.9-29.4 2.5l-0.9-0.1c-3.8-0.4-7.5-0.5-11.3-0.8-4-0.7-7.8-2.3-11.8-3.3-6.7-2.1-13.6-3.1-20-6-9.2-4-18.5-7.8-28-11.1-4.8-1.5-8.7-6.1-14.1-5.5-2 0.1-3.9 0.4-5.9 0.6-6.3 0.3-12.7 1.1-18.9-0.1-3.5-0.7-7-1.3-10.5-1.8-4.1-1.2-7.4-4.4-10.6-7.1-2.5-2.9-5.7-5.3-7.2-8.9-1.1-6.8-0.5-13.8 1-20.4 0.8-3.4 1.1-7 0-10.3-1.7-3-3.1-6.2-2.6-9.6 0.9-7.7-0.5-15.5 0.8-23.2 0.7-6.7 3.1-12.9 6.2-18.8 3-6.1 8.4-10.4 11.9-16.1 7-9.4 10.4-20.8 14.2-31.7 2.6-7.2 3.5-14.8 5.8-22.1 2.4-7.8 3.8-15.8 4.9-23.8 0.4-6 0.8-12 2.1-17.9 2-14.2 4.6-28.3 7-42.5 0.8-3.7 1.4-7.5 1.3-11.3-0.1-7.1 0.3-14.2-0.8-21.2-3.7 0.4-7.6 1.1-10.2 4-5.5 5.8-8.9 13-13.5 19.4-4.1 5.6-6.3 12.2-9.8 18.1-1.8 3.1-2.5 6.5-3.3 9.9l-0.3 0.7c-6.1 10.2-8.7 22.1-11.5 33.5-1.9 6.1-3.9 12.1-5.4 18.3-2.2 9.9-9.5 17.5-13.4 26.6-0.9 4.8-0.5 9.7-1.4 14.5-1.2 7.3-0.4 14.8-2.2 22.1-1 4.5-2.5 9.2-0.8 13.7 2.4 6.7 6.1 13 6.9 20.1 0.9 9.6 0.1 19.2-0.3 28.7 0.2 0.2 0.6 0.5 0.8 0.7-0.6 0.9-1.1 1.7-1.6 2.6-2.1 4.9-2.7 10.3-5 15.1-2.1 4.5-1.3 9.5-1.1 14.2-0.6 3.3-1.7 6.5-3.3 9.5-0.6 1.4-2.2 1.7-3.5 2.2-3.3 0.8-6.5 2.3-8.4 5.3l-0.4 0.5c-0.3 0.1-0.9 0.2-1.2 0.3-4 0.6-7.8 2.2-11.4 4-2.7 1-5.7 1.1-8.5 1.4-3.3 0.2-6.6 0.2-9.9 0.3-6.4 0.1-12.8-0.3-19.2-0.1-3.6 0-6.6 2.1-9.4 4.2-5.2 3.8-9.6 8.6-15.2 11.8-3.9 2.2-8.1 3.9-12.2 5.7-6.2 2.6-12.9 3.1-19.3 4.7-6.9 1.4-13.7 3.4-20.8 4.2-7.9 1-15.9 1.1-23.8 2-3.1 0.1-6.2 0.1-9.3 0-10-0.4-19.9-3-29.9-3.5-6.4-0.3-12.7-0.9-19.1-1.4-6.2-0.4-11.9-3.1-17.6-5.4-3.6-1.6-7.3-3.1-10.5-5.5-8.2-8.5-7.4-21.4-7.1-32.3 0.3-3.5 1.7-6.8 3.4-9.8 2.3-4.4 4.8-8.7 7.4-13 1.4-2.4 2-5.1 1.8-7.9 1.1-0.5 2.1-1 3.2-1.6 0.7 1.6 2.5 3.4 1.4 5.3-1.6 3.4-3.5 6.7-4.8 10.3-1.4 3.7-2.9 7.3-3.8 11.2-0.6 2 0.6 3.8 1.3 5.6-1.7 1.3-3.9 2.7-3.9 5.1-0.9 8.6 2.4 17.1 7.4 24 4.2 3.7 9.6 5.9 14.7 8 8.6 2.2 17.5 3.5 26.3 3.9 14.5 0.8 29.2 3.3 43.6 0.1 5.1-1 10.3-0.5 15.4-0.7 5.4-0.2 10.8-1.2 16.2-2.2 5.2-1 10.3-2.4 15.4-3.7 7-1.9 14.2-3.5 20.3-7.7 4.7-3.2 9.8-6.1 14-9.9 3.5-3 7.2-6.7 12.1-6.7 9.3-0.2 18.6 1 27.8-0.4 6.2-0.9 12.1-3.1 18.1-4.8 5-1.5 9.8-3.9 13.8-7.4 1.3-0.9 1.2-2.5 1.4-3.9-0.3-5.5 3.4-10.3 3.2-15.8 0.4-4.4-1-8.5-3-12.3-0.1-0.5-0.2-1.4-0.3-1.8 2.8 0.5 5.5 0.6 8.3 0.7 0.1-0.5 0.2-1.6 0.2-2.1 2.1-11.4 2.4-23 1-34.5-0.4 1.3-0.8 2.6-1.1 4-0.1-3.8 0-7.6-1.4-11.1-1.4-3.4-3.7-6.4-5.3-9.6-0.4-2.6-0.4-5.1-0.5-7.7 1.5-2.8 2-5.9 2.2-9.1 0.5 0.4 0.9 0.8 1.4 1.2 1-9.8 0.2-19.8 1.5-29.6 1.1-8.7-3.5-16.8-3.2-25.5 5.4 2.3 4.7 8.7 5.5 13.5 4-4.3 7.4-9.3 9.4-14.9 3.4-9.4 8.4-18.9 7.4-29.2 0.4 1.3 0.8 2.7 1.3 4 0.9-5.3 1.7-10.6 3.8-15.5 3.4-7.8 3.1-16.8 8.3-23.8 3.9-5 4.4-11.7 8.1-16.8 3.2-4.6 4.9-10.1 8.7-14.3 3.8-4.4 6.5-9.5 9.9-14.2 2.3-3.6 6.8-4.2 10.6-5.3 2.4-0.1 4.8-0.1 7.3-0.1 0.5 2 1 4.1 1.5 6.1 1.2 8.9 0.6 18 0.6 26.9-0.7 7.3-2.4 14.4-3.4 21.6-2.6 8.2-2.2 17-2.4 25.5-0.4-3.1-0.8-6.2-1.1-9.3-0.3 9.3 0.3 18.9-2.5 27.9-2 7.5-2.3 15.3-4.6 22.7-1.6 5.1-1.6 10.5-3.4 15.5-1.6 4.5-3.3 8.9-4.5 13.5-1.6 5.5-2.3 11.3-5.7 16.1-3.6 5.2-6.3 11-10 16.1-3.7 5.3-8.2 10.2-10.8 16.3-0.5 0-1-0.1-1.5-0.1-1.6 5.9-2.9 12-2.9 18.1 0 9.1-0.7 18.7 3.5 27 0.8 0.6 1.7 1.1 2.5 1.7-1.1 0.2-2.3 0.4-3.4 0.6-1.5 7.7-2.6 15.9 0.4 23.5-1.1 0.8-2.1 1.6-3.2 2.5 0.3 0.4 0.7 0.8 1 1.1 5.3 6.7 12.7 12 21.2 13.8 6.1 2.1 12.6 1.9 18.8 0.6 3.7-0.5 7.4-2.2 11.1-1.8 8.2 3.9 16.3 8.1 24.6 11.9 10.1 3.4 19.7 8.4 30.2 10.7 8.5 1.9 16.8 5.1 25.6 5.7 16.6 1.5 32.6-3.7 48.9-5.5 11.6-1.5 22.5-7 31-14.9 3.7-3.6 8.5-6.4 10.7-11.3 1.5-3.7-2.5-5.8-5.3-7 1.6-1.5 4.2-2.9 3.6-5.5-0.9-7.4-4-14.5-9-20-4.1-7.4-8.5-14.6-13.8-21.2-5.2-4.8-9.4-10.8-15.5-14.5-6.5-4.2-13.6-7.6-21.1-9.7-5.8-1.7-12.2 0.3-17.7-2.3-0.4-0.5-1.1-1.5-1.5-2-6.5-1.1-13.3-1-19.5 1.3 1-1.3 2.8-2.5 2.5-4.3-0.5-3-2.1-5.6-3.4-8.3-3.6-6.9-6.8-14.2-7-22-0.4-9.4-2.1-18.7-1.2-28.1 0.6-6.3 1.1-12.7 1.3-19 0.4-7.9 3.2-15.3 4.6-23 0.5-1.3-0.6-2.3-1.4-3.2-1-0.7-1.9-1.4-2.9-2 2.6-2.1 5.2-4.5 6.6-7.6 1.5-3.1 1.6-6.7 1.6-10.1-0.1-6.6-0.6-13.3 0.2-19.9 1.3-10.3 0.5-20.8 0.9-31.1 0.5-10.3 0.8-20.7 0.3-31-0.8-12.3-0.6-24.5-0.4-36.8 1.1-4.1 2.5-8.2 4.6-11.9 1.4-2.6 3.2-5.3 3.3-8.3 0.4-6.4-0.4-12.7 0.2-19.1 0.2-3.9 1.1-7.8 1.5-11.7 0.3-3.5-1.5-7-0.7-10.5l1.2-2.7c3.4-6.2 3.6-13.3 3.4-20.1h-9c0.6-0.7 1.2-1.3 1.8-2 1.4-1.2 1.5-3.1 1.3-4.9-0.3-4-1.5-7.8-2.5-11.6h-2.6c-0.3-1-0.6-2-1-2.9 16.6-13.5 32.2-29 42.1-48.1 2.6-5.3 6.7-10.3 6.6-16.5-7.7-2.3-14.3-6.9-21.6-10.2-6.4-2.9-11.8-8-19-9-0.9-1.3-1.7-2.5-2.6-3.7-14.4-8.7-27.1-19.8-39.7-30.9-7.5-8.3-15.8-15.9-22.5-24.9 2.4-1.7 4.8-3.5 7.1-5.3 5.7-4.5 11.9-8.3 18.1-12 1.3-1 3.3-1.8 3.2-3.8 0.3-6.2 0-12.5 0.8-18.6 1.3 4.6 1.9 9.4 2.8 14.1 5.6-3.3 8.8-9.2 12.7-14.1 3.3-5.4 9.2-10.3 8.3-17.2-0.5-9.8-7.8-17.2-10.2-26.4-1.3-3.5-2.9-6.8-4.7-10 0.9 0.3 1.9 0.6 2.8 0.9 0.6 0.2 1.7 0.6 2.3 0.8 7.2-6.9 13.5-14.9 21.9-20.5 5.3-3.1 10.6-6.3 15.9-9.4 2.3-1.4 4.8-3.5 4.8-6.4-0.3-2.4-1.7-4.5-2.6-6.7-2.4-4.7-1.2-10.1-1-15.1 0.9-7.3 0.3-14.8 2.2-22 1.6-6.5 1.5-13.3 2.2-19.9 0.5 0.9 1.1 1.8 1.6 2.6-0.4-13.3 1.5-26.6 2.5-39.9 0.1-5.3 1.1-10.6 2.9-15.7 2-3.1 1.9-6.8 2.3-10.4 0.4-6.9 3.3-13.2 4.7-19.9 1.5-6.9 3-13.8 6.6-20 0.6 1.8 1.2 3.7 1.9 5.5 6 0 12.1-0.7 17.9 0.9 4.1 1.2 8.4 2 12.1 4.1 4.4 2.7 8.6 6 12 9.8 2.7 3.5 7.6 1.9 11.3 1.4 8.2-2.1 16.7-1.3 25.1-1.5 7.7-0.2 15.5 0.3 23.2-0.6-0.3-0.5-1-1.4-1.3-1.8-3.7-6-10-9.7-16.1-12.9-3.2-1.7-6.8-2.6-10.3-3.3 0.8-1.6 1.6-3.1 2.3-4.7 1.9-4.5 3.1-9.4 2.5-14.3-4.4-0.2-8.9-0.3-13 1.7-5.2 2.4-9.8 6.1-14.4 9.6-1.7 1.5-3.2 3.2-4.7 5l6.6 2.7c-1 0.4-2 0.8-3 1.1-0.6 0.2-1.9 0.5-2.6 0.6l-5.7-0.6c-1.2-4.5 3.6-6.6 5-10.2 1.3-5.5 3.1-12.3-1.3-16.9-2.7-1.9-6.3-1.2-9.3-1.6 0.1 0.7 0.3 2 0.4 2.7 0.5 3.5 1.2 6.9 1.8 10.3-0.7-0.7-1.4-1.5-2.1-2.3-3.5-7.5-7.1-15-12.3-21.5-2.3-3.4-4.9-6.6-8.3-8.9-0.6-9.3 0.8-18.7-1.3-27.8-1.2-6.3-7.8-9.6-13.4-11.3-6.2-1.6-13.5-3.5-19.4 0.2-1.1 2.7-1 5.8-0.8 8.6 0.5 4.8 3.7 8.7 5.3 13.1 2.6 6.4 1.8 13.6 0.8 20.3-0.8 6.6-4.4 12.3-7 18.3-1.7 4-5.5 6.8-6.6 11.1-2.6 9-3.5 18.4-6.4 27.3-3.2 10.2-4.6 21-8.1 31.1-1.3 4.2-2.3 8.6-3.7 12.8-2.8 8.8-3.2 18.3-7.1 26.8-3.3 6.9-4.4 14.7-8.3 21.4-3.3 6.1-4.5 13.1-8.4 18.8-2.9 4.3-4.5 9.3-7.3 13.7-5.1 7.3-9.8 14.9-15 22.2-2.1 2.9-5.3 4.5-8 6.7-2 1.7-3.3 4.1-4.6 6.4-2.2 0-4.4 0.5-6.6 0.8-1.8 0-3.7-0.2-5.5 0.1-2.8 0.9-5 3-7.4 4.6-3.8 1.3-7.6 2.9-9.7 6.6l-3.6 1.5c-0.2 0.5-0.5 1.5-0.7 2-7.6 3.6-14.8 8.2-23.1 10-2.8 0.6-5.5 1.3-8 2.6-0.8 0.7-1.6 1.4-2.3 2.2-1.1-0.5-2.2-0.9-3.3-1.4 0.1 0.4 0.2 1.2 0.3 1.5 0 0.8 0.1 2.4 0.2 3.1-1.9 5.7-2.6 11.7-3.2 17.7 0.3-4.4 0.5-8.9 0-13.4-0.6-5.2-3.7-9.6-6.8-13.7-1.7-1-3.6-1.7-5.5-2.1 8.4-3.4 17-6.5 24.6-11.5 7.1-3.4 12.1-10.2 14.4-17.6 1.8-5.9 3.2-11.9 4.4-17.9 2.4-2.3 4.7-4.5 6.7-7.2 4.4-7.3 7.2-15.4 10.9-23.1 2.4-5 3.8-10.3 5.7-15.4 2.4-6.7 5.2-13.4 6.8-20.4 1.8-7.3 2-14.8 2.8-22.2 0.9-8-0.2-16.1-1.1-24-1.1-9.8-5.8-18.7-11.5-26.6-6.2-8.3-13.8-16.2-23.5-20.3-0.5 2.4-1.3 4.8-1.8 7.2-0.5-5.5-0.5-11-0.6-16.5l-0.5 0.6c-0.5 0.4-0.9 0.9-1.4 1.3-0.1-6.7-3.9-12.5-7.5-17.8-3.2-3.5-6.9-7.6-12-7.4-4.8-0.2-9.6-0.2-14.4 0.2 6-0.9 12-0.3 18-0.6-0.7-2.3-1.3-4.6-2.6-6.6-1.6-1.2-3.2-2.3-4.8-3.3 1.4-2.6 2.5-5.5 1.5-8.5-0.6 1.4-1.1 2.9-1.7 4.3-1.1-0.5-2.2-1-3.4-1.5 0.6-0.1 1.7-0.3 2.3-0.4-0.1-6.2-0.8-12.7-4.1-18.1-3-4.8-5.5-10.3-10.5-13.4-5.3-3.6-9.4-8.9-15.1-11.8-5.9-3.2-12.5-4.5-18.6-7.3-3.2-1.4-6.5-2.5-9.9-3.1-6.6-1.1-13.2-2.6-20-2.6-5 0-10 0.3-15.1 0.7-7.3 0.4-13.4 5-20.3 7.1-7.8 2.4-14.7 6.8-22 10.2-6 2.7-10.9 7.2-16.7 10.3-3.2 1.7-5 4.9-7.4 7.5-3.6 3.8-8 6.9-12.1 10.1-3.8 2.8-5.6 7.1-8.1 10.9-4 6.3-9.5 11.6-11.8 18.9-2.2 7.4-5 14.7-5 22.5-0.6-0.9-1.1-1.8-1.7-2.7-0.7 14.3-2 28.6-0.9 42.8 0.4 6 0.4 12.1 0.4 18.2 0.4-3.4 0.7-6.9 1.1-10.3 0.2 7.5-0.1 15.1 2.1 22.3 1.2 4 2.3 8.1 3.4 12.1 0.5 1.7 1 3.4 1.6 5.1-3.4 4.3-6.4 9.1-8 14.4-1 3-1.6 6.1-2.2 9.1-1.7 0.4-3.5 0.7-5.1 1.3-1.2 1.7-1.8 3.7-2.6 5.6-1.9 5.6-5.7 10.3-8.8 15.3-2.9 4.6-6.9 8.4-10.6 12.3-3.6 3.8-6.4 8.2-10.1 12-3.5 3.6-6.8 7.3-9.4 11.5-3.3 5.1-2.6 11.4-2.2 17.1 0.3 4.4 3.8 7.6 6.1 11 5.2 7.6 11.9 14 18.8 20.1 5.9 4.3 12.1 8.8 19.3 10.5 10.6 1.2 21.6 1.1 31.9-1.8 7.1-1.6 14.2-3.9 20.4-7.8 3.9-2.5 8.1-4.4 12.4-5.9 1.7-1.4 3.3-3.1 4.9-4.7 9.5 8.5 22.1 11.8 34.1 15.1 4.7 2.7 10.2 2.7 15.5 2.6 3.1-0.3 5.4 2.2 7.5 4.2 4.9 6.6 7.8 14.3 10 22.1 4.8 0.3 9.6 0.3 14.2 1.7-4 0.5-8 1.1-12 1.8-0.5 0.1-1.6 0.2-2.1 0.3 1.5 0.8 3 1.6 4.6 2.4-1.5 0.5-3.1 1.1-4.6 1.6-4.7-2.4-9.6-5.8-15.1-4.8-4.6 0.8-9.1 2-13.5 3.3-5 1.4-9.6 4.1-14.9 4.2-8 0.2-16.1-0.2-24.1 0.2-1.8 0.1-3.5 0.2-5.2 0.3-9.4 0.2-18.7-0.8-28 0.4 0.8 1.7 1.7 3.4 2.6 5-0.5 2.2-0.9 4.4-1 6.7-1.4-2.8-2.5-5.9-4.8-8.2-2.9-1.6-6.4-1.1-9.5-1.6-6.7-0.3-13.2-2.4-19.9-2.5-8.7-0.1-17.4-1.2-26.2-0.9 4.3-0.5 8.5-0.7 12.8-1.1-8.5-0.2-17 0.4-25.4-1-4.9-1.7-8.8-5.7-13.6-7.7-6.4-2.6-12.3-6.3-18.5-9.1-4.9-2.2-9.1-5.5-13.9-7.9-9.3-4.6-18.6-9.1-27.5-14.5-8.2-4.3-16.3-8.8-24.8-12.4-4.2-1.9-7.9-4.7-12.1-6.7-6-2.8-12.2-5.6-17.4-9.8-2.6-3.2-2.4-7.9-4.5-11.4-2.5-4.4-7.2-6.7-11.7-8.2-6.6-2.5-13.7-3.1-20.6-3.5-7.7-8-11.7-19.3-11-30.3 0-4.6 1-9.7-1.9-13.7-2.8-3.9-7.4-7.9-12.6-6.6-4.3 1.2-8.5 3.5-11 7.3-3.2 4.7-6.2 10-6.3 15.9 0.2 5 0.9 10.2 3.7 14.5 5.8 9.5 12.1 19 20.8 26.1-1.6 2.6-3.4 5.1-5.4 7.4-5 6-8.6 12.9-12.5 19.5-2.5 4.5-6.1 8.3-7.9 13.2-2 5.6-6.3 10-8.3 15.6-1.8 4.7-4 9.2-6.5 13.6-2.5 4.6-3.7 9.7-5.5 14.5-4.2 10.4-8.1 21.7-6.5 33.1 0.6-0.3 1.2-0.6 1.9-1 0.2 1.4 0.5 2.8 0.7 4.2 2.7 0.4 5.4 0.8 8.2 0.7 0.3-0.4 0.7-1.1 1-1.4 0.7-1 1.5-2.1 2.3-3.1 0.3 8-1.3 16.3 1 24.1 1 2.9 2.9 5.3 5 7.4 3.3 0.9 6.6 1.9 9.9 2.9 6.4 1.2 11.9-3.2 16-7.5 6.7-6.4 12.5-13.5 18.6-20.5 6.5-6.7 11.3-14.8 16.4-22.5 10-14 16.7-29.9 23.4-45.7 2-3.1 6.6-2.9 9.7-2.2 4.2 1.9 7.1 5.9 11.2 8.1 3.8 2.1 6.7 5.3 10.1 7.9 12.5 8.7 24.1 18.6 36.4 27.5 9.2 6.4 17.5 14 26.8 20.3 8.9 6.7 17 14.8 27.1 19.6 4.4 1.9 10.2 3.7 14.3 0.4 2.2-1.4 4.3-3.4 7.1-3.1 12.2 0.6 24.5 1.3 36.7 0.6-0.5 0.6-0.9 1.2-1.3 1.8 10 0.5 20 0.6 30 0.4-5.2 0.4-10.5-0.2-15.6 1.1-4.5 1.1-9.2 1.4-13.9 1.5-0.3 6.4 1.1 12.8 2.2 19 0.6 3.5 2.8 6.3 4.7 9.1 0.9 1.4 1.8 2.8 2.7 4.1 2.8 2.4 5.8 5 9.6 5.4s7.6 0.4 11.5 0.6c6.1 1.8 12.1 4.4 18.6 4.4 1-2.2 2.3-4.2 3.3-6.4 0.6 1.8 1.2 3.6 1.7 5.5-0.7 1.7-2.1 3.3-2 5.2 1.5 3.3 4.9 5.2 7.6 7.4 4.4 3.6 9.5 6.5 13.4 10.6 5.7 5.9 12.1 11.3 16.9 18.1 4.8 7.4 11 13.8 15.9 21.3 4.3 6.8 9.1 13.2 12.4 20.5 3.7 5.9 6.7 12.2 9.3 18.7-1 0.5-1.9 1-2.9 1.5 0.2 2.1 0.4 4.3 0.6 6.4 0 0.3 0.1 1 0.1 1.4-1.4-3.5-3-7-5-10.1-3-4.6-4.4-10-7.5-14.5-3.6-5.2-5.6-11.4-9.7-16.3-3.8-4.7-6.5-10.1-10.2-14.9-6.1-8.1-12.6-16-20.1-22.9-6.5-6.2-12.7-12.8-20.2-17.8-4.5-2.9-9.2-5.7-13.6-8.8-8.6-4.9-19-4.2-28.4-5.6-4-1.4-6.1-5.6-8-9.1-0.3 0-0.7 0-1 0.1-1.8-5.5-5.1-10.5-6-16.3-0.9-4.7-1-9.5-0.9-14.2-9.2 0-18.5 0-27.7-0.1-5.9-0.2-11.1 3.6-17 3.1-7.5-0.6-14.9-3.8-20.5-8.8-7.1-6-14.8-11.3-22.4-16.6-5.2-3.8-9.8-8.4-15.3-11.8-3.9-2.7-7.2-6.1-11.1-8.8-2.6-1.8-5.1-3.5-7.5-5.5-9.1-7.8-19.4-14.2-28.4-22.1-5.9-4-11-9.7-18.2-11.6-2.7 5.9-5.7 11.6-8.1 17.6-5.6 10.8-11.3 21.6-18.2 31.6-3 4.1-5.8 8.4-8.8 12.5-4.3 6.6-10.6 11.6-15.2 18-6.2 7-12.8 14.3-21.4 18.3-5.7 2.8-12.1 0.4-17.6-1.6-5.2-2.3-10.4-6.4-11.4-12.4-0.9-4.4-1.2-9-1.5-13.5-6.5-2.1-11.6-7.4-14.6-13.4-1.6-5.9-1.4-12.5 1.7-17.9 1.9-3.4 2.6-7.1 3-10.9 0.4 0.4 0.9 0.8 1.3 1.1 1.9-6.5 3.3-13.3 6.6-19.3 1.7-3.2 3-6.6 4-10.1 2.7-5.8 6.7-10.9 9.2-16.7 5.1-11.1 12.3-21.1 18.5-31.6 1.7-3 4.8-5.4 5.4-8.9-1-5-5.3-8.3-8.4-12.1-8.9-9.1-13-22.4-11.5-35 1.3-8.3 6.3-15.5 12.4-21.1 5.6-3 12.4-4.1 18.5-2.3 5.2 2.2 7.7 7.7 11.1 11.9 0.7 3.6 1.7 7.3 1 11.1-0.4 2.8-1.6 5.7-0.6 8.6 2.1 6.2 4.7 12.3 7.4 18.3 7.4 0.4 15 1.3 22 4.1 6.3 2.9 12 7.6 15.4 13.8 2 3.3 1.9 8.3 6 9.9 15.6 7.4 30.6 16.1 46.1 23.8 6.5 3 12.6 6.8 18.9 10.2 7 3.2 13.6 7.2 20.5 10.4 6.1 2.7 11.1 7.2 17.3 9.6 4.9 1.8 9.3 4.9 14.1 7.1 7.8 3.1 16.3 3.6 24.5 3.7 3.8 0.3 7.6 0.5 11.4 0.4-0.4 0.4-0.9 0.8-1.3 1.3 4.6 0.3 9.3 0.6 13.9 0.9 5.8 0.4 11.7 2 17.5 0.4 3.3-0.9 6.8-1.5 10.2-1.4 7.9 0.1 15.8 0.3 23.6-0.1 9.8 0.2 19.7 0.4 29.4-0.3 6.6-0.5 12.4-3.9 18.7-5.3 6.1-0.9 12.3-0.8 18.5-1.4-0.6-3.7-1.2-7.4-3-10.7-1.9-3.3-4.5-6.1-6.9-9.1-3.6-0.2-7.3-0.4-10.9-1.1-7.6-1.4-15.5-1.2-22.8-4.3-4.3-1.4-7.8-4.5-11.9-6.4-3.7-1.6-7.6 0.3-10.8 2.2-3.7 2.7-7.9 4.7-12.5 5.5 0.4 0.3 0.7 0.5 1.1 0.8-2.4 0.6-4.7 1.2-6.9 2.2-12.2 6.3-26.3 6.3-39.7 5.8-7.9-0.1-14.6-4.6-21.2-8.3-4.3-2.5-7.9-6-11.6-9.3-7.2-6.9-13.8-14.5-19-23.1-5.1-7.7-4.9-18.3-0.4-26.3 1.8-3.2 4.1-6.1 6.6-8.8 3.4-3.8 5.9-8.4 9.6-12 4.5-4.9 9.3-9.6 12.9-15.2 3-4.5 6.9-8.4 9.2-13.4 4.2-9.2 9.9-17.6 14.9-26.4 4.1-8.2-1.4-16.7-1.6-25.1l-1.8-0.6c0.5-8.9-3.3-17.3-3-26.2 0-9.4-0.1-18.9 0-28.3 2.1-10.8 3.8-21.8 8.1-32 2.5-7.7 6.7-14.6 10.5-21.6 5.3-5.7 9-12.9 14.8-18.1 6-5.4 11.6-11.3 18.4-15.7 13.1-8.2 27-15.6 41.8-20.6z" fill="#080705" stroke="#080705"/>
	<path d="m384.7 27.5c6.8-2.2 12.9-6.7 20.3-7.1 5-0.4 10-0.6 15.1-0.7 6.8 0 13.3 1.5 20 2.6 3.4 0.5 6.7 1.7 9.9 3.1 6.1 2.8 12.7 4.1 18.6 7.3 5.8 2.9 9.9 8.2 15.1 11.8 4.9 3.2 7.5 8.6 10.5 13.4 3.3 5.4 4 11.9 4.1 18.1-0.6 0.1-1.7 0.3-2.3 0.4-4-0.8-8.2-1.4-12 0.4-6.5 2.8-13.2 5.6-20.4 5.4-0.7-3.5-1.6-7.1-2.9-10.4-1.4-4.9-3.9-9.3-6.7-13.5 3.3-0.1 6.5-0.3 9.8-0.5-0.3-2.2-0.6-4.4-2.1-6.2-2-1.5-4-2.9-6.1-4.3-5.1-2.5-10.9-1.8-16.4-1.8-5.7 0.1-11.4-0.3-17 0.1-6.7 0.3-12.1 4.5-17.7 7.7-7.1 3.9-12.2 10.4-17.7 16.2-4.1 4.4-6.5 10-8.4 15.7-1.4 4.4-3.5 8.5-5.1 12.8-1.6 4.5-1.3 9.3-0.9 13.9 4 0.5 8.2 1 12-0.8 4-1.8 8.3-2.8 12.2-4.8 1.5-2.2 1.1-5.3 2.3-7.6 5.4-3.6 12.1-3.2 18.3-3.3 4.9-0.1 9.7 1.1 14.1 3.2-4.5 3.8-9.7 6.4-14.3 10-2.9 2.2-5.9 4.8-9.8 4.9-8.1 0.9-17.2-1.1-24.3 3.8-5.4 3.2-10.7 6.8-14 12.2-3.5 4.9-5 11.3-9.6 15.4-5.2 4.7-11.3 8.7-15.1 14.8-3 5.8-8.1 10.1-11.6 15.6-6.1 6.1-10.3 13.6-16.1 19.9-2.6 2.9-6.6 3.9-10.2 5-1.1-4-2.2-8.1-3.4-12.1-2.2-7.2-1.9-14.9-2.1-22.3-0.4 3.4-0.7 6.9-1.1 10.3 0-6.1 0-12.1-0.4-18.2-1.1-14.3 0.2-28.6 0.9-42.8 0.6 0.9 1.1 1.8 1.7 2.7 0-7.8 2.8-15.1 5-22.5 2.2-7.2 7.8-12.6 11.8-18.9 2.5-3.8 4.4-8.2 8.1-10.9 4.2-3.2 8.5-6.2 12.1-10.1 2.4-2.5 4.2-5.8 7.4-7.5 5.8-3.1 10.7-7.6 16.7-10.3 7-3.3 13.9-7.7 21.7-10.1z" fill="#FD0000" stroke="#FD0000"/>
	<path d="m404.2 53.3c5.6-3.1 11.1-7.3 17.7-7.7 5.7-0.3 11.3 0 17-0.1 5.5 0 11.3-0.6 16.4 1.8-0.7 0.2-2.2 0.6-2.9 0.8 0.1 0.5 0.4 1.4 0.6 1.9-8.7-2.9-18.1-3-27.2-2.3-4.7 0.4-8.5 3.4-12.5 5.6-4 2.4-8.5 3.8-12.1 6.8-4.9 4.1-8.8 9.3-13 14-4.5 5.1-6.5 11.8-8.9 18.1-2 5-3.2 10.4-2.5 15.8 0.1 0.5 0.3 1.5 0.3 2.1 6.4-0.9 10.8-6.1 16.6-8.6-0.9-1-1.8-2-2.8-3 9.5-7.3 22.2-8.4 33.6-6.3 5.8 0.9 10.8 4.3 15.6 7.5 0.6 0.8 1.2 1.6 1.8 2.4 1.3 1.9 3 3.6 4.7 5.2 1-6.9 0.2-14.3-4.4-19.8-3.6-5.9-11.2-10-10.7-17.8 5.6 0.9 11.1 1.8 16.6 3.3 4.7 1.4 7.4 6 10.1 9.7-0.9 2.1-1.7 4.3-2.7 6.3 1 0.7 2 1.4 3 2.2-1-0.3-2-0.5-3-0.7 0.3 0.6 0.6 1.3 1 1.9-2.2 0.2-4.4 0.4-6.6 0.5-1.2 8 0 16.2-1.5 24.1-5.7-3.5-6.9-10.8-11.8-15.1-1.7-0.5-3.3 0.8-4.7 1.5-5.1 3.4-10.8 5.9-15.2 10.2 0.8 2.1 1.5 4.2 2.2 6.3-1.5-0.5-3-1.1-4.4-1.7-2.3-1.1-4.7-2.2-7.4-2-7.1 0-14.6-0.1-21.1 3.3 0.2-0.4 0.5-1.2 0.7-1.6-1.4-0.2-2.7-0.5-4-0.7 7.1-5 16.2-2.9 24.3-3.8 3.8-0.1 6.8-2.8 9.8-4.9 4.6-3.6 9.9-6.3 14.3-10-4.4-2.1-9.2-3.3-14.1-3.2-6.2 0-12.9-0.3-18.3 3.3-1.2 2.4-0.8 5.4-2.3 7.6-3.9 2-8.2 3-12.2 4.8-3.8 1.8-8 1.2-12 0.8-0.4-4.6-0.8-9.5 0.9-13.9 1.6-4.3 3.7-8.4 5.1-12.8 1.9-5.6 4.3-11.2 8.4-15.7 5.4-5.7 10.5-12.1 17.6-16.1m34.4 22.6c2.5 5.2 7.9 8.4 9.8 14 2-0.4 4.8 0.4 6-1.6 0.9-1.2 1.8-3 0.5-4.2-4.1-4.5-9.7-9.3-16.3-8.2z" fill="#3F0F04" stroke="#3F0F04"/>
	<path d="m413.4 53.4c4-2.2 7.8-5.2 12.5-5.6 9.1-0.7 18.4-0.6 27.2 2.3 0.2 0.8 0.5 1.6 0.7 2.4-4.6 0-9.1 0.3-13.7 0.7 0.4 1 0.6 2 0.4 3.1 6.1 3.1 12.7 7.1 15.2 13.9 1.5 4 3.3 8.3 2.5 12.7-2.7-3.8-5.4-8.3-10.1-9.7-5.4-1.5-11-2.4-16.6-3.3-0.5 7.8 7.1 11.9 10.7 17.8 1.4 4.5 2.1 9.1 2.5 13.8-0.7 0.2-2.2 0.6-2.9 0.8-0.6-0.8-1.2-1.6-1.8-2.4-3.6-5.2-9.8-7.7-15.7-9.2-10.9-2-23-1.1-32.3 5.5-2.8 2.4-3.3 6.4-6.2 8.8-2.5 2.3-6 2.6-9.1 3.2-0.7-5.4 0.5-10.8 2.5-15.8 2.4-6.2 4.4-12.9 8.9-18.1 4.2-4.8 8.1-9.9 13-14 3.7-3.1 8.3-4.5 12.3-6.9z" fill="#FDCC03" stroke="#FDCC03"/>
	<path d="m452.5 48.2c0.7-0.2 2.2-0.6 2.9-0.8 2.1 1.3 4.1 2.8 6.1 4.3-0.2 1.3-0.4 2.7-0.6 4-3.7 0.1-7.4 0.2-11.1 0.4 3.4 5.3 7.1 10.5 10.7 15.7 1.3 3.4 2.2 6.9 2.9 10.4 7.2 0.2 13.9-2.6 20.4-5.4 3.8-1.9 8-1.3 12-0.4 1.1 0.5 2.2 1 3.4 1.5 0.6-1.4 1.1-2.9 1.7-4.3 1 3 0 5.9-1.5 8.5-4.1-2.4-9.3-3.5-13.9-1.7-5.2 1.5-8.7 5.9-12 9.9-1-1.3-2-2.8-2.8-4.3-2.1 0.5-4.2 0.9-6.2 1.4 0.1 4.2 0.6 8.5-1 12.5-1.6-2.8-2.4-6.3-5-8.4-1-0.8-2-1.5-3-2.2 1-2.1 1.8-4.2 2.7-6.3 0.7-4.4-1-8.6-2.5-12.7-2.4-6.8-9.1-10.8-15.2-13.9 0.2-1.1 0-2.1-0.4-3.1 4.5-0.4 9.1-0.7 13.7-0.7-0.3-0.8-0.5-1.6-0.7-2.4-0.2-0.5-0.5-1.5-0.6-2z" fill="#2F0F07" stroke="#2F0F07"/>
	<path d="m657.4 50.5c5.9-3.7 13.2-1.8 19.4-0.2 5.6 1.7 12.2 5 13.4 11.3 2.1 9.1 0.8 18.5 1.3 27.8 3.4 2.3 6 5.5 8.3 8.9 5.1 6.5 8.8 14 12.3 21.5 2.1 6.6 2.9 13.6 4.3 20.3 2.3-0.6 4.6-1.2 7-1.8 0.6-0.2 1.9-0.5 2.6-0.6 10.7 0.3 22.2-2 32.1 3.2 6.7 2.9 12.5 7.4 18 12.1 0.3 0.5 1 1.4 1.3 1.8-7.7 0.9-15.5 0.4-23.2 0.6-8.4 0.2-16.9-0.7-25.1 1.5-3.7 0.5-8.6 2-11.3-1.4-3.5-3.9-7.6-7.1-12-9.8-3.8-2.1-8-2.9-12.1-4.1-5.8-1.6-11.9-1-17.9-0.9-0.6-1.8-1.2-3.7-1.9-5.5-3.6 6.2-5 13.1-6.6 20-1.4 6.7-4.3 13.1-4.7 19.9-0.4 3.5-0.3 7.3-2.3 10.4-1.8 5.1-2.7 10.3-2.9 15.7-1.1 13.3-2.9 26.6-2.5 39.9-0.5-0.9-1.1-1.8-1.6-2.6-0.7 6.7-0.7 13.4-2.2 19.9-1.9 7.2-1.2 14.7-2.2 22-0.1 5-1.3 10.4 1 15.1 1 2.2 2.3 4.3 2.6 6.7 0 3-2.5 5.1-4.8 6.4-5.3 3.1-10.6 6.3-15.9 9.4-8.4 5.6-14.6 13.6-21.9 20.5-0.6-0.2-1.7-0.6-2.3-0.8-3.1-4.1-6.3-8.3-10.3-11.6-4.4-3.6-8.2-8-13.3-10.6-3.9-2-7.7-4.3-11.6-6.3 1.3-2.3 2.6-4.6 4.6-6.4 2.7-2.2 5.9-3.8 8-6.7 5.2-7.3 9.9-14.9 15-22.2 2.8-4.4 4.4-9.4 7.3-13.7 3.9-5.8 5.1-12.7 8.4-18.8 3.9-6.7 5-14.5 8.3-21.4 3.9-8.5 4.3-18 7.1-26.8 1.3-4.2 2.3-8.6 3.7-12.8 3.5-10.2 4.8-20.9 8.1-31.1 2.9-8.9 3.8-18.3 6.4-27.3 1.1-4.3 4.9-7.1 6.6-11.1 2.6-6 6.2-11.7 7-18.3 1-6.7 1.9-13.8-0.8-20.3-1.6-4.4-4.8-8.3-5.3-13.1-0.5-3-0.5-6 0.6-8.7z" fill="#FFCB99" stroke="#FFCB99"/>
	<path d="m461.5 51.7c1.5 1.7 1.8 4 2.1 6.2-3.3 0.2-6.5 0.3-9.8 0.5 2.8 4.2 5.3 8.6 6.7 13.5-3.6-5.2-7.3-10.3-10.7-15.7 3.7-0.2 7.4-0.3 11.1-0.4 0.2-1.4 0.4-2.8 0.6-4.1z" fill="#910A0B" stroke="#910A0B"/>
	<path d="m438.6 75.9c6.6-1.1 12.2 3.7 16.3 8.2 1.4 1.2 0.4 3-0.5 4.2-1.3 2-4 1.2-6 1.6-1.9-5.6-7.3-8.8-9.8-14z" fill="#F20404" stroke="#F20404"/>
	<path d="m485.5 80.4c4.6-1.8 9.7-0.7 13.9 1.7 1.7 1 3.2 2.1 4.8 3.3-0.6 0.9-1.1 1.9-1.7 2.8-3.6-0.6-7.4-0.8-11-0.1-4.8 1-9.1 3.3-12.7 6.6-2.1 1.9-4.7 3-7.4 3.6l-1.7-1.7c-0.4 2.3-0.7 4.6-1.1 6.9l-1.2-1.2c-0.5 4.5-1 8.9-1.9 13.4-1.3 6.5-1.2 13.2-1 19.8 0.6 5.7 2.1 11.2 4.3 16.5 1.5 4 3.4 7.9 6.6 10.8-0.1-2-0.1-4-0.4-5.9-0.2-2.1-0.2-4.1-0.3-6.2 3.1 2.8 6.4 5.5 10.2 7.3l0.7 0.4c5.9 3.6 13.3 2.7 19.8 1.7 6.5-2.9 11.6-8.3 15.9-13.8 4.4-5.6 5.5-12.7 6.7-19.5 6.1 3.7 12.1 7.9 16.7 13.5 6.5 8.1 12.9 16.9 15 27.3 2.7 11.6 2.5 23.6 1.4 35.4-1.4 8.9-2 18.1-5.7 26.4-3.9 9.3-6.2 19.2-10.8 28.2-2.9 6.2-4.9 12.9-9.2 18.3l-1.8-4.8c-0.5 0.1-1.5 0.5-1.9 0.6-2.2 9.2-3.8 18.4-6.5 27.5-1.4 6.8-5.2 13.2-11 17.1-5.8 3.8-11.9 7.4-18.5 9.6-6.3 2.1-12 6.1-18.7 6.5-7.1 0.7-14.1-1.5-21.1-2.5-7.7-2.2-15.4-4.7-23.4-4.9 0 0.6-0.1 1.9-0.2 2.5 6.4 1.9 13.4 2.6 18.8 6.8-10.4 0.2-19.8 5.4-30.2 5.9-8.1 0.4-16.3 0-24.4 0.4-12-3.4-24.6-6.6-34.1-15.1-4.6-5.8-10.1-11-13.5-17.7-4.9-7.5-8.2-15.9-10.6-24.4-0.8-2.6 1.5-4.5 2.7-6.4 3.8-4.9 6.4-10.6 7.8-16.6h-4.1c-1.3 5.6-3.5 11-6.8 15.7-4.8 5-12.4 5.3-18.8 3.6-4-1.5-7.7-3.6-11.3-5.7-2.7-1.5-3.9-4.5-4.9-7.2-4.7-15.2-3.6-31.2-3.4-46.9 1.6-5.3 4.6-10.1 8-14.4 5.1-3.1 10.6-6 16.5-7.4 3.2-0.9 7.6 0 7.8 4 0.6 4.9-0.2 10 1.3 14.8 0.9 3.6 5.3 3.2 8.1 4.1 1.8 3.3 2.9 7.7 6.9 8.9 4.7 1.3 10.4 1.1 14-2.5 3.3-3.1 6.6-6.7 7.6-11.2 1.5-5.5 2.9-11.2 1.8-16.9-0.5-2.7-3.2-4.1-5.3-5.3-1.2-0.6-2.5-1.1-3.7-1.6-0.2-1.2-0.5-2.3-0.7-3.5-1.1-1.3-2.1-3.4-4.1-3.2-2.7 0.2-5.3 1.1-7.9 1.8-0.3-7.8-0.6-15.6-0.1-23.3 0.4-5.4 4.1-9.7 8.7-12.2 0.3 3.4-1.3 8.1 2.8 9.7 2-9.6 4.8-19.1 9.6-27.6 5.7-7.9 14.4-13.8 24.1-15 6.4-0.7 12.9-0.1 19.4-0.2 1.5 0.6 2.9 1.2 4.4 1.7-0.7-2.1-1.4-4.2-2.2-6.3 4.4-4.3 10.2-6.7 15.2-10.2 1.4-0.7 3-2 4.7-1.5 4.9 4.2 6.1 11.6 11.8 15.1 1.5-8 0.3-16.1 1.5-24.1 2.2-0.2 4.4-0.4 6.6-0.5-0.3-0.6-0.7-1.3-1-1.9 1 0.2 2 0.5 3 0.7 2.6 2.1 3.4 5.6 5 8.4 1.5-4 1.1-8.3 1-12.5 2.1-0.5 4.1-0.9 6.2-1.4 0.8 1.5 1.7 3 2.8 4.3 3.5-4.4 7-8.8 12.2-10.3m-101.4 50.7c-6 2.3-8 8.8-11.3 13.7-4.5 7.6-4.6 16.8-3.8 25.3 0.8 6.9 4.4 13.1 8.3 18.7 2.6 3.6 5.5 7.6 10 9 10.6 6.1 25.6 4.9 34.1-4.3 3.6-4.5 7.5-9 9.5-14.5 2.9-10.3 2-21.2 0.4-31.7-1.6-3.9-4.3-7.4-6.9-10.7-5-5.4-11.1-10.9-18.9-11.3-7.4-0.6-16-0.2-21.4 5.8m76.9 42c-2 0.8-1.6 3.3-2 4.9 4-0.8 7.8-2.8 12-2.8 4.7 0 9.7-0.6 14 1.7 2.3 1.2 4.9 2.6 5.8 5.2 1.5 3.9 0.2 8.3-2 11.7-2.4 2.7-5.8 4.3-8.6 6.4-4.5 3.3-10.3 3.3-15.6 4.5-0.1 1-0.3 2.1-0.5 3.1 3.8 0.1 7.7 0.1 11.3-1.4 7-2.2 14-5.9 17.6-12.4 3.6-5.9 2.6-14.6-3-18.9-8.5-5.7-19.7-5.6-29-2m56.2-2.1c0.2 1.3 0.5 2.5 0.8 3.7 2.8 0.3 5.6 0.6 8.3 0.8-0.9 8.2-5.4 15.5-9.2 22.6-3 5.9-7.4 10.8-10.5 16.6-4.1 2.6-7.1 6.9-10.8 10.1-4.1 4.6-10.3 6.5-14.9 10.5-2.4 2.1-5.4 3-8.4 3.9-7.7 2.3-15.3 4.7-23.2 6.4-11.8-0.7-23.6 0.2-35.4-0.5-5.2-0.3-10.1-2.1-15.2-3 1.8-2.9 5.4-4.7 6.3-8.2-0.6-1.8-2.9-0.6-3.9 0.3-6.4 5-11.3 12.8-11.7 21.1 1.6 0 3.2-0.4 4.9-0.5 0.1-2.3 0-4.6 0.7-6.8 1-0.3 2.1-0.3 3.2-0.1 2 4.8 4.3 9.4 6.8 14 2.8 3.3 5.3 6.9 6.6 11.2l1.5 0.6c2.3 5.2 7 8.6 9.6 13.5 1.1 1.3 1.9 4.1 4.1 3.3 2.8 3.1 5.3 6.5 8.8 8.8 4.3 2.8 7.8 6.6 12.6 8.5 3.2 1.4 6.8 2 9.6 4.3 6.6 0.7 13.4 1.7 20 0.4 4.6 0.1 9-1.7 13.4-2.8 5-1.4 8.6-5.2 12.9-7.9 6.8-4.3 12.7-10 18.4-15.6 1.1-1.3 3.2-2.9 2-4.8-2.4-4.2-5.7-8-7.1-12.8-2.7-8.2-5.6-16.3-7.3-24.8-0.4-8-0.1-16.1-0.2-24.1-0.3-4.7 4.4-7.2 6.1-11.1 3.6-7.4 10.2-13.7 10.9-22.2 1.2-2.7 2.3-5.5 3.5-8.2 3.5 1.2 6.3 3.5 7.6 7 1 0.2 2 0.4 3 0.8 0.4-0.6 1.2-1.8 1.6-2.3-4.6-4.9-9.1-11.1-16.2-12.2-3.1-0.5-6.3-1.6-9.2-0.5m-207.9 63.9c-0.2 5.5-1.3 11.8 2.1 16.6 1.5 2.1 4.3 4.2 6.9 2.9 3.6-1.8 4.5-6.4 7.8-8.4 2.4-0.8 5.2-0.7 7.6-0.1 1.9 1.4 2.7 4.3 5.2 4.5 3-2.1-0.2-5.7-2.3-7.3-6.1-5.2-16.6-1.2-18.4 6.4-1.2 0.1-2.4 0.2-3.5 0.3-0.9-8.1-1.2-16.7 3-24.1 1.2-0.4 2.5-0.9 3.7-1.3 0.1-1.3 0.1-2.5 0.2-3.8-7.1 0.7-12 7.5-12.3 14.3z" fill="#FECB99" stroke="#FECB99"/>
	<path d="m504.1 85.4c1.3 2 1.9 4.3 2.6 6.6-6 0.3-12.1-0.3-18 0.6-6.5 2.2-10 8.5-14.2 13.3-1.6-2.3-2.6-4.9-3.2-7.6 2.7-0.6 5.4-1.7 7.4-3.6 3.6-3.3 8-5.6 12.7-6.6 3.2 2.4 7.8 2.7 11 0.1 0.6-0.9 1.2-1.9 1.7-2.8z" fill="#413526" stroke="#413526"/>
	<path d="m442.3 87.7c4.5 5.6 5.3 12.9 4.4 19.8-1.7-1.6-3.3-3.3-4.7-5.2 0.7-0.2 2.2-0.6 2.9-0.8-0.6-4.7-1.2-9.4-2.6-13.8z" fill="#B09726" stroke="#B09726"/>
	<path d="m491.5 88.2c3.6-0.8 7.4-0.5 11 0.1-3.2 2.5-7.8 2.2-11-0.1z" fill="#2C1C0D" stroke="#2C1C0D"/>
	<path d="m392.1 96.2c9.3-6.6 21.4-7.6 32.3-5.5 5.9 1.5 12.1 4 15.7 9.2-4.8-3.2-9.8-6.6-15.6-7.5-11.4-2.1-24.2-1-33.6 6.3 0.9 1 1.9 2 2.8 3-5.7 2.5-10.2 7.6-16.6 8.6-0.1-0.5-0.3-1.5-0.3-2.1 3.1-0.6 6.6-0.9 9.1-3.2 2.9-2.4 3.4-6.5 6.2-8.8z" fill="#9D7D13" stroke="#9D7D13"/>
	<path d="m474.5 105.9c4.2-4.9 7.8-11.2 14.2-13.3 4.8-0.4 9.6-0.4 14.4-0.2 5.1-0.1 8.8 4 12 7.4 3.6 5.3 7.5 11.1 7.5 17.8 0.5-0.4 0.9-0.9 1.4-1.3-0.4 6.5 0.1 13.3-2.2 19.5-2.9 8.2-8.9 15.5-16.9 19.1-5 2.4-11.1 2.5-16.1 0-7.8-3.6-14-10.7-16-19.1-1.7-6.3-1.4-12.8-1.4-19.3 0.5-3.5 1.6-7.1 3.1-10.6m15.3 9.9c-4.2 5.1-2.7 13.2 1.7 17.7 4.4 3.2 9.4-0.4 12.7-3.4 3.8-4.2 1.8-9.9 0.3-14.6-2.9-1.2-5.9-2.2-9-3-1.9 1-4.2 1.6-5.7 3.3z" fill="#FEFEFE" stroke="#FEFEFE"/>
	<path d="m468.6 103.6c0.4-2.3 0.7-4.6 1.1-6.9l1.7 1.7c0.6 2.7 1.6 5.3 3.2 7.6-1.5 3.4-2.6 7.1-3.1 10.8-1.4 6.9-0.6 14-0.1 20.9-1.9-1.6-4.2-2.7-6.8-2-0.2-6.6-0.3-13.3 1-19.8 0.9-4.4 1.4-8.9 1.9-13.4l1.1 1.1z" fill="#0A0807" stroke="#0A0807"/>
	<path d="m712 109.1c3.1 0.4 6.7-0.3 9.3 1.6 4.5 4.6 2.6 11.4 1.3 16.9-1.5 0.5-2.9 1-4.3 1.5-1.3-6-2.5-12.2-5.9-17.3-0.1-0.7-0.3-2-0.4-2.7z" fill="#F9C997" stroke="#F9C997"/>
	<path d="m712.4 111.7c3.5 5.2 4.6 11.3 5.9 17.3 1.4-0.5 2.9-1 4.3-1.5-1.4 3.7-6.3 5.8-5 10.2l5.7 0.6c-2.3 0.6-4.6 1.3-7 1.8-1.4-6.8-2.2-13.7-4.3-20.3 0.7 0.8 1.4 1.5 2.1 2.3-0.5-3.5-1.2-6.9-1.7-10.4z" fill="#523F2A" stroke="#523F2A"/>
	<path d="m489.8 115.8c1.5-1.7 3.8-2.3 5.7-3.3-0.4 2.7 0 5.4 1.9 7.4 2-0.9 4-1.9 6-2.8 1.2 4.2 1.1 8.6 0.7 12.9-3.4 3-8.3 6.6-12.7 3.4-4.3-4.4-5.8-12.5-1.6-17.6z" fill="#030303" stroke="#030303"/>
	<path d="m495.5 112.5c3.1 0.8 6 1.8 9 3 1.5 4.7 3.5 10.4-0.3 14.6 0.4-4.3 0.4-8.7-0.7-12.9-2 0.9-4 1.8-6 2.8-1.9-2.1-2.3-4.8-2-7.5z" fill="#D1D1D1" stroke="#D1D1D1"/>
	<path d="m524 116.4l0.5-0.6c0.2 5.5 0.1 11 0.6 16.5 0.6-2.4 1.3-4.8 1.8-7.2 9.7 4.2 17.3 12 23.5 20.3 5.8 7.8 10.4 16.8 11.5 26.6 0.9 8 2 16 1.1 24-0.8 7.4-1 14.9-2.8 22.2-1.5 7-4.3 13.6-6.8 20.4-1.9 5.1-3.3 10.4-5.7 15.4-3.7 7.6-6.5 15.8-10.9 23.1-0.4 0.3-1.2 0.8-1.6 1.1-0.8-2-1.9-3.9-2.8-5.8-0.9 4-1.6 7.9-2.3 11.9-1.2 6-2.6 12-4.4 17.9-2.3 7.4-7.3 14.1-14.4 17.6-7.7 4.9-16.2 8.1-24.6 11.5-6.7 2.5-14 1.7-21.1 1.7-3.6 0-6.8-1.5-10-2.9 7 1 14 3.2 21.1 2.5 6.8-0.4 12.5-4.4 18.7-6.5 6.6-2.3 12.7-5.8 18.5-9.6 5.8-3.9 9.6-10.3 11-17.1 2.7-9 4.4-18.3 6.5-27.5 0.5-0.2 1.5-0.5 1.9-0.6l1.8 4.8c4.3-5.5 6.3-12.1 9.2-18.3 4.6-9 6.9-18.9 10.8-28.2 3.7-8.4 4.3-17.5 5.7-26.4 1-11.8 1.2-23.8-1.4-35.4-2.2-10.4-8.5-19.2-15-27.3-4.5-5.6-10.5-9.8-16.7-13.5-1.2 6.8-2.3 13.9-6.7 19.5-4.3 5.5-9.4 11-15.9 13.8-6.5 1.1-13.9 1.9-19.8-1.7 6.7 1.6 14.4 3.5 20.9-0.1 6.5-3.9 11.8-9.7 16.1-15.9 1.8-2.5 1.7-5.7 1.8-8.6-0.9 0.7-1.7 1.3-2.6 2 2.6-6.4 2.1-13.1 2.5-19.6z" fill="#8C7259" stroke="#8C7259"/>
	<path d="m386 119.8c6.5-3.3 14-3.3 21.1-3.3 2.6-0.1 5 1 7.4 2-6.5 0.1-13-0.5-19.4 0.2-9.7 1.2-18.5 7.1-24.1 15-4.8 8.5-7.6 18-9.6 27.6-4.1-1.5-2.5-6.3-2.8-9.7-4.5 2.5-8.3 6.9-8.7 12.2-0.5 7.8-0.2 15.6 0.1 23.3 2.6-0.7 5.2-1.6 7.9-1.8 2-0.2 3 1.9 4.1 3.2-4.1-1.3-8.4-1-12.4 0.2-3-5.1-2.5-11.3-2.2-17 0.4-4.9 1-10 3.3-14.4 1.8-3.5 5.1-5.8 8.4-7.9 0.5 3.4 0.8 6.8 1.1 10.3h0.8c-0.1-7.8 3.6-14.7 6.3-21.8 3.2-8.3 10.9-14 18.7-18.1z" fill="#967B52" stroke="#967B52"/>
	<path d="m471.3 137.6c-0.5-6.9-1.2-14 0.1-20.9 0 6.4-0.3 13 1.4 19.3 2 8.4 8.2 15.5 16 19.1 5 2.4 11.1 2.4 16.1 0 8-3.6 14-10.9 16.9-19.1 0.8-0.7 1.7-1.3 2.6-2-0.2 2.9 0 6.1-1.8 8.6-4.3 6.2-9.6 12-16.1 15.9-6.4 3.6-14.1 1.7-20.9 0.1l-0.7-0.4c-2.9-2.8-5.9-5.5-8.6-8.4-2.9-3.1-4.1-7.2-5.6-11-2.6 3.9 0.2 8.4 1.6 12.2-0.5 1.1-1 2.3-1.4 3.4-0.7-0.7-1.4-1.5-2.1-2.2-2.2-5.3-3.7-10.8-4.3-16.5 2.6-0.8 4.9 0.3 6.8 1.9z" fill="#2A1F16" stroke="#2A1F16"/>
	<path d="m368.7 129.7c3.3-5.4 8.6-9.1 14-12.2 1.3 0.2 2.7 0.4 4 0.7-0.2 0.4-0.5 1.2-0.7 1.6-7.8 4.1-15.5 9.8-18.8 18.2-2.7 7.1-6.4 14-6.3 21.8h-0.8c-0.3-3.4-0.6-6.9-1.1-10.3-3.2 2.1-6.6 4.4-8.4 7.9-2.2 4.5-2.9 9.5-3.3 14.4-0.3 5.7-0.8 11.8 2.2 17 4.1-1.2 8.4-1.5 12.4-0.2 0.2 1.1 0.5 2.3 0.7 3.5 1.3 0.5 2.5 1 3.7 1.6-2.4 0.7-4.8 1.3-7.2 2-0.3-1.8-0.4-3.5-0.6-5.3-3.1 0.9-6.2 2.1-9.5 2.4-2.9-0.2-4.7-3.3-4.7-6-0.5-6.5 0.4-13.1-1-19.6-4.6 3.9-7 9.6-11.1 13.9-3.8 4.2-7 8.8-10.3 13.4 3.9 0.3 7.9 0.5 11.8 0.6l0.2 0.8c0.1 2.2 0 4.4 0 6.6-0.5-0.2-1.5-0.5-2.1-0.7-0.2-4-4.6-4.9-7.8-4-5.9 1.4-11.4 4.3-16.5 7.4-0.6-1.7-1.1-3.4-1.6-5.1 3.6-1.1 7.6-2.1 10.2-5 5.8-6.3 10-13.8 16.1-19.9 3.5-5.5 8.6-9.8 11.6-15.6 3.8-6.1 9.9-10 15.1-14.8 4.8-3.8 6.2-10.2 9.8-15.1z" fill="#2E0C05" stroke="#2E0C05"/>
	<path d="m741.3 119.4c4-1.9 8.6-1.8 13-1.7 0.6 4.9-0.6 9.8-2.5 14.3-8.9 1.1-18 0-26.9 1.6 0.7-1.6 1.3-3.1 2-4.7 4.6-3.4 9.2-7.1 14.4-9.5z" fill="#FCCB9B" stroke="#FCCB9B"/>
	<path d="m384.1 131.1c5.3-5.9 13.9-6.3 21.3-5.7 7.8 0.4 13.9 5.8 18.9 11.3 2.6 3.3 5.3 6.7 6.9 10.7 1.6 10.4 2.6 21.3-0.4 31.7-2 5.5-5.8 10-9.5 14.5-8.5 9.2-23.5 10.4-34.1 4.3-9.6-8.6-17.7-20.5-17.7-33.8-0.6-12.7 6.3-24.2 14.6-33m8.7-1.2c-7.2 3.4-13.5 9.4-15.8 17.1-3.3 5.3-4.8 11.7-4.6 17.8 1.3 8.8 4 17.8 10.3 24.4 2.4 2.6 4.7 5.6 8.1 7 4.2 1.9 8.8 1.5 13.3 1.5 8.3 0.5 15.7-5.7 18.9-13 2-2.4 3.7-5 5-7.8 1.8-3.8 1.4-8.1 1.5-12.1-0.1-5.9 0.7-12.4-2.8-17.6-3.6-5.3-6.5-11.5-12.2-14.9-6.3-3.8-14.7-5.9-21.7-2.4z" fill="#2F251B" stroke="#2F251B"/>
	<path d="m392.8 129.9c7-3.5 15.4-1.5 21.7 2.6 5.7 3.4 8.6 9.6 12.2 14.9 3.5 5.2 2.8 11.7 2.8 17.6-0.1 4.1 0.3 8.3-1.5 12.1-1.3 2.8-3 5.4-5 7.8-2.9 3.1-5.7 6.4-9.2 8.9-7.2 5-17.3 4.7-24.5-0.1-7.4-5.4-12.4-13.8-14.3-22.8-1.1-8-0.7-16.3 2-23.9 2.3-7.7 8.6-13.7 15.8-17.1m4.2 25.2c-2.3 2.1-4.3 4.6-5.2 7.6-0.9 2.1 0.7 4.1 1.7 5.8 2.8 4.3 8.6 7.6 13.6 4.9 1.5-2.1 3.5-3.9 4.3-6.4 0.7-3.2-0.4-6.4-1.2-9.4-0.9 0.1-1.6 0.1-2.4-0.3-0.6 1.1-1.1 2.1-1.7 3.2-1.3-0.3-2.6-0.6-3.8-0.9 0.1-2.2 0.2-4.4 0.4-6.7-2 0.5-4.3 0.5-5.7 2.2z" fill="#FEFEFE" stroke="#FEFEFE"/>
	<path d="m722.3 134c1.5-1.7 3-3.5 4.7-5-0.7 1.5-1.4 3.1-2 4.7 8.9-1.6 18-0.4 26.9-1.6-0.7 1.6-1.5 3.2-2.3 4.7 3.5 0.7 7.1 1.6 10.3 3.3 6.1 3.2 12.4 6.9 16.1 12.9-5.5-4.7-11.3-9.2-18-12.1-9.9-5.2-21.4-2.9-32.1-3.2 1-0.3 2-0.7 3-1.1-2.2-0.9-4.4-1.7-6.6-2.6z" fill="#68513B" stroke="#68513B"/>
	<path d="m372.8 144.8c3.3-4.9 5.3-11.4 11.3-13.7-8.4 8.8-15.3 20.4-14.6 32.9 0.1 13.3 8.1 25.2 17.7 33.8-4.5-1.4-7.4-5.4-10-9-3.9-5.6-7.5-11.8-8.3-18.7-0.6-8.6-0.6-17.7 3.9-25.3z" fill="#957B60" stroke="#957B60"/>
	<path d="m472.3 150.9c-1.4-3.8-4.2-8.3-1.6-12.2 1.5 3.8 2.7 8 5.6 11 2.7 3 5.7 5.7 8.6 8.4-3.8-1.9-7-4.6-10.2-7.3 0.1 2.1 0.2 4.1 0.3 6.2-0.8-2.1-1.8-4.1-2.7-6.1z" fill="#BA9E85" stroke="#BA9E85"/>
	<path d="m678.3 146.2c8.7-3.2 18 0.9 25.8 4.9 5.9 3 8.5 11.4 15.9 11.3 9.1 0.5 18.2-0.6 27.3-1.8 12.5-0.5 25-0.1 37.5-0.3-3.1 3.7-8.5 2.1-12.8 2.5-13-0.6-25.9 0.6-38.9 0.4-5.1-0.1-10.1 0.6-15.1 0.5-2.5 0.1-4.3-2-6-3.6-2.6-2.7-5.2-5.5-8.5-7.5-7.6-4.6-16.5-6.8-25.2-6.4z" fill="#616660" stroke="#616660"/>
	<path d="m372.4 164.9c-0.2-6.2 1.3-12.6 4.6-17.8-2.7 7.6-3.1 15.9-2 23.9 1.8 9 6.9 17.3 14.3 22.8 7.2 4.7 17.4 5.1 24.5 0.1 3.4-2.5 6.2-5.8 9.2-8.9-3.2 7.3-10.6 13.4-18.9 13-4.4 0-9.1 0.4-13.3-1.5-3.4-1.4-5.7-4.4-8.1-7-6.2-6.8-9-15.9-10.3-24.6z" fill="#7A7C7F" stroke="#7A7C7F"/>
	<path d="m472.3 150.9c0.9 2.1 1.9 4 2.8 6.1 0.3 2 0.3 4 0.4 5.9-3.3-2.9-5.2-6.8-6.6-10.8 0.7 0.7 1.4 1.5 2.1 2.2 0.3-1.2 0.8-2.3 1.3-3.4z" fill="#452F1C" stroke="#452F1C"/>
	<path d="m397 155.1c1.4-1.7 3.7-1.7 5.6-2.1-0.1 2.2-0.2 4.4-0.4 6.7 1.3 0.3 2.5 0.6 3.8 0.9 0.6-1.1 1.1-2.1 1.7-3.2 0.8 0.3 1.6 0.4 2.4 0.3 0.8 3.1 1.9 6.2 1.2 9.4-0.8 2.5-2.8 4.3-4.3 6.4-3.9-0.8-8.6-0.8-11-4.5-3.1-4.2-0.8-9.7 1-13.9z" fill="#020202" stroke="#020202"/>
	<path d="m391.8 162.7c0.9-3 2.9-5.6 5.2-7.6-1.8 4.3-4.1 9.7-1 13.9 2.4 3.6 7.2 3.7 11 4.5-5 2.7-10.8-0.5-13.6-4.9-0.9-1.8-2.5-3.8-1.6-5.9z" fill="#7C7C7C" stroke="#7C7C7C"/>
	<path d="m332.3 181.3c4.1-4.4 6.5-10 11.1-13.9 1.4 6.5 0.5 13.1 1 19.6 0.1 2.7 1.8 5.8 4.7 6 3.3-0.3 6.3-1.6 9.5-2.4 0.2 1.8 0.4 3.5 0.6 5.3 0.1 0.4 0.2 1.1 0.3 1.5 2.5 0.4 5.1 0.5 7.6 0.8 0.3 7.7 1.4 16.6-4.2 22.8-2.9 3.9-8.1 7.5-13.1 5.2-4-1.6-3.8-6.5-4.5-10-2.9-0.4-5.8-0.7-8.8-0.9 0.1-6.5-0.1-13.1-2.6-19.2l-0.2-0.8c-3.9-0.1-7.9-0.3-11.8-0.6 3.4-4.6 6.6-9.2 10.4-13.4z" fill="#FDCC04" stroke="#FDCC04"/>
	<path d="m461 173.1c9.3-3.6 20.5-3.7 29 1.9 5.6 4.4 6.6 13 3 18.9-3.7 6.6-10.7 10.3-17.6 12.4-3.6 1.5-7.5 1.5-11.3 1.4 0.2-1 0.4-2.1 0.5-3.1 5.2-1.2 11-1.2 15.6-4.5 2.9-2.1 6.2-3.7 8.6-6.4 2.2-3.4 3.5-7.8 2-11.7-1-2.6-3.5-4-5.8-5.2-4.3-2.3-9.4-1.7-14-1.7-4.2-0.1-8 2-12 2.8 0.4-1.6 0-4 2-4.8z" fill="#31200E" stroke="#31200E"/>
	<path d="m517.2 171c3-1 6.1 0.1 9.1 0.6 7.1 1.1 11.6 7.3 16.2 12.2-0.4 0.6-1.2 1.8-1.6 2.3-1-0.3-2-0.6-3-0.8-1.3-3.5-4.1-5.8-7.6-7-1.2 2.7-2.3 5.5-3.5 8.2-3.2 7.8-7.9 14.7-12.2 21.9-1.4 2.4-3.3 4.4-5 6.6-1-0.1-2-0.3-2.9-0.4 3.1-5.8 7.5-10.7 10.5-16.6 3.8-7.2 8.3-14.4 9.2-22.6-2.8-0.3-5.6-0.6-8.3-0.8-0.4-1.2-0.8-2.4-0.9-3.6z" fill="#2E1E10" stroke="#2E1E10"/>
	<path d="m514.5 208.5c4.3-7.2 9-14.1 12.2-21.9-0.7 8.6-7.3 14.8-10.9 22.2-1.7 3.9-6.4 6.5-6.1 11.1 0.1 8-0.3 16.1 0.2 24.1 1.8 8.4 4.6 16.6 7.3 24.8 1.5 4.7 4.7 8.5 7.1 12.8 1.2 1.9-0.9 3.5-2 4.8-5.7 5.6-11.6 11.3-18.4 15.6-4.3 2.7-7.9 6.6-12.9 7.9-4.4 1.1-8.8 2.9-13.4 2.8 5.9-2.3 12.3-3.2 17.8-6.4 8-5.4 16-10.9 22.7-17.9 1.7-2.1 5.6-4.5 3.8-7.6-2.4-4.6-5.5-8.8-6.9-13.8-2.3-7.9-6-15.6-6.1-23.9-0.4-8.8-0.7-17.6 0-26.3 0.1-0.4 0.4-1.3 0.5-1.7 1.9-2.2 3.7-4.2 5.1-6.6z" fill="#9B7E62" stroke="#9B7E62"/>
	<path d="m366.4 193.8c2.1 1.3 4.8 2.7 5.3 5.3 1.1 5.7-0.4 11.4-1.8 16.9-1.1 4.6-4.3 8.1-7.6 11.2-3.6 3.6-9.3 3.8-14 2.5-4-1.3-5.1-5.7-6.9-8.9-2.9-0.8-7.2-0.5-8.1-4.1-1.5-4.8-0.8-9.9-1.3-14.8 0.5 0.2 1.5 0.5 2.1 0.7v-6.6c2.4 6.1 2.7 12.7 2.6 19.2 2.9 0.2 5.8 0.5 8.8 0.9 0.8 3.5 0.6 8.4 4.5 10 5 2.3 10.1-1.3 13.1-5.2 5.6-6.2 4.4-15.2 4.2-22.8-2.6-0.3-5.1-0.4-7.6-0.8-0.1-0.4-0.2-1.1-0.3-1.5 2.2-0.6 4.6-1.3 7-2z" fill="#4D3B0F" stroke="#4D3B0F"/>
	<path d="m506.6 214.7c1 0.1 2 0.2 2.9 0.4-0.1 0.4-0.4 1.3-0.5 1.7-2.2 6.8-0.4 14.2-2.3 21h-1.5c-1.1-4.6-1.1-9.3-1.9-14-7 5.6-13.9 11.6-22.1 15.4-8.3 3.9-17 7.5-26.1 8.9-3.3 0.6-6.5-0.6-9.5-1.6 1.3-0.3 2.5-0.6 3.8-0.9 7.8-1.7 15.5-4.1 23.2-6.4 3-0.9 6-1.8 8.4-3.9 4.6-4 10.8-5.9 14.9-10.5 3.6-3.2 6.5-7.5 10.7-10.1z" fill="#221B15" stroke="#221B15"/>
	<path d="m506.8 237.8c1.9-6.9 0-14.2 2.3-21-0.7 8.8-0.4 17.5 0 26.3l-2.1-2.1c-0.2 5.2-0.1 10.6 1.3 15.7 1.4 5.7 4.1 10.9 6 16.4-7.8-0.2-15.5-0.8-23.3-0.6-5.1 0.1-10.2 1.3-14.6 4.1-2.7 1.5-5.3 3.7-8.4 4.1-5.5 0.5-10.7-1.5-16.1-1.8-8.5 0.3-17.2 1.9-24.2 7.1-7.4-6.4-12.4-15-17.4-23.3-3.1-4.4-5.8-9-7.6-14 3.7-0.6 7.5-0.6 11.3-0.7 4.7 0 9.2-1.7 13.9-2.1 5.9-0.5 11.8-0.1 17.6 0.7 3.1 1 6.2 2.3 9.5 1.6 9.2-1.4 17.8-5 26.1-8.9 8.2-3.8 15.1-9.8 22.1-15.4 0.8 4.6 0.8 9.4 1.9 14 0.5-0.1 1.3-0.1 1.7-0.1z" fill="#3C3C3C" stroke="#3C3C3C"/>
	<path d="m297.5 229c0.6-3.1 1.2-6.1 2.2-9.1-0.2 15.7-1.3 31.7 3.4 46.9 1 2.8 2.2 5.7 4.9 7.2 3.6 2.2 7.3 4.3 11.3 5.7 6.4 1.7 13.9 1.5 18.8-3.6 1-0.7 2-1.3 3-1.9 0 0.7 0.1 2 0.2 2.7-1.2 1.9-3.6 3.9-2.7 6.4 2.4 8.6 5.7 17 10.6 24.4 3.4 6.7 8.9 11.9 13.5 17.7-1.6 1.6-3.1 3.2-4.9 4.7 0.4-5.4-4.4-8.7-7.3-12.7-5.4-6.5-8.5-14.3-12.1-21.8-1.7-3.6-2.9-7.5-3.9-11.3-7.3-0.9-15.1 0.6-21.9-2.8-4.3-2-8.6-4.7-10.9-9-3.3-5.8-3.3-12.6-4.9-19-1.4-6.1-2.4-12.3-3-18.6-1.3 0.3-2.5 0.6-3.8 0.9 0.8-1.9 1.4-3.9 2.6-5.6 1.4-0.5 3.2-0.9 4.9-1.2z" fill="#350F0A" stroke="#350F0A"/>
	<path d="m309.3 234.9c0.3-6.8 5.2-13.6 12.4-14.2-0.1 1.3-0.1 2.5-0.2 3.8-1.2 0.4-2.5 0.9-3.7 1.3-4.2 7.3-3.8 16-3 24.1 1.2-0.1 2.3-0.2 3.5-0.3 1.8-7.6 12.3-11.6 18.4-6.4 2.1 1.6 5.2 5.1 2.3 7.3-2.6-0.3-3.4-3.2-5.2-4.5-2.5-0.7-5.2-0.8-7.6 0.1-3.4 2-4.3 6.6-7.8 8.4-2.6 1.3-5.4-0.8-6.9-2.9-3.4-4.9-2.4-11.2-2.2-16.7z" fill="#36261C" stroke="#36261C"/>
	<path d="m401.3 234.2c0.9-0.9 3.3-2.1 3.9-0.3-0.9 3.5-4.5 5.3-6.3 8.2 5.1 0.9 10 2.7 15.2 3 11.8 0.7 23.6-0.2 35.4 0.5-1.3 0.3-2.5 0.6-3.8 0.9-5.8-0.9-11.8-1.3-17.6-0.7-4.7 0.4-9.1 2.1-13.9 2.1-3.8 0.1-7.6 0.1-11.3 0.7 1.8 5.1 4.5 9.7 7.6 14 5 8.3 10 16.8 17.4 23.3 6.9-5.2 15.7-6.8 24.2-7.1 5.4 0.3 10.6 2.3 16.1 1.8 3.2-0.4 5.7-2.6 8.4-4.1 4.3-2.7 9.5-4 14.6-4.1 7.8-0.2 15.5 0.4 23.3 0.6-1.9-5.5-4.6-10.7-6-16.4-1.4-5.1-1.5-10.4-1.3-15.7l2.1 2.1c0.1 8.4 3.7 16.1 6.1 23.9 1.4 5 4.6 9.3 6.9 13.8 1.8 3.1-2.1 5.5-3.8 7.6 0.1-2.5 0.4-5-0.2-7.4-1.4-1.5-3.4-2.2-5.2-3-11.2-4.3-24.1-3.1-35 1.5-3.2 0.7-5.3 3.1-6.7 5.8-2.5-0.5-5-0.9-7.5-1.3-6.5-0.9-13.1-0.6-19.7-0.5-4.6-0.1-8.8 2-12.6 4.4-1.5 0.9-3 1.8-4.6 2.6-2.1 0.8-3-2-4.1-3.3-2.6-5-7.3-8.4-9.6-13.5l-1.5-0.6c-1.3-4.2-3.8-7.8-6.6-11.2-2.5-4.5-4.7-9.2-6.8-14-1.1-0.2-2.2-0.2-3.2 0.1-0.7 2.2-0.6 4.5-0.7 6.8-1.6 0.1-3.2 0.4-4.9 0.5 0.3-8.1 5.2-16 11.7-21z" fill="#26120E" stroke="#26120E"/>
	<path d="m289.8 235.9c1.3-0.3 2.5-0.6 3.8-0.9 0.5 6.3 1.5 12.5 3 18.6 1.5 6.4 1.6 13.2 4.9 19 2.3 4.3 6.6 7 10.9 9 6.8 3.4 14.6 1.9 21.9 2.8 1 3.9 2.2 7.7 3.9 11.3 3.7 7.5 6.8 15.3 12.1 21.8 2.9 3.9 7.7 7.2 7.3 12.7-4.3 1.6-8.6 3.4-12.4 5.9-6.2 3.9-13.2 6.3-20.4 7.8-10.4 2.9-21.3 3-31.9 1.8-7.2-1.7-13.4-6.3-19.3-10.5-6.9-6.1-13.5-12.5-18.8-20.1-2.4-3.4-5.9-6.6-6.1-11-0.4-5.7-1-12.1 2.2-17.1 2.6-4.3 5.9-8 9.4-11.5 3.6-3.8 6.5-8.1 10.1-12 3.7-4 7.6-7.7 10.6-12.3 3.1-5.1 7-9.7 8.8-15.3z" fill="#8C0000" stroke="#8C0000"/>
	<path d="m56.2 243.1c2.5-3.8 6.7-6.1 11-7.3 5.2-1.3 9.8 2.7 12.6 6.6 3 3.9 1.9 9.1 1.9 13.7-0.7 11.1 3.3 22.3 11 30.3 7 0.3 14.1 1 20.6 3.5 4.6 1.6 9.3 3.9 11.7 8.2 2.1 3.5 1.8 8.2 4.5 11.4 5.2 4.2 11.4 7 17.4 9.8 4.2 1.9 7.9 4.8 12.1 6.7 8.5 3.6 16.6 8.2 24.8 12.4 8.9 5.4 18.2 9.8 27.5 14.5 4.8 2.4 9 5.7 13.9 7.9 6.3 2.8 12.2 6.4 18.5 9.1 4.9 2 8.7 5.9 13.6 7.7 8.4 1.5 17 0.9 25.4 1-4.3 0.3-8.5 0.6-12.8 1.1 8.8-0.2 17.4 0.9 26.2 0.9 6.7 0.1 13.2 2.3 19.9 2.5 3.2 0.5 6.6 0 9.5 1.6 2.3 2.2 3.4 5.4 4.8 8.2 1.7 3.7 3.8 7.3 4.8 11.2 2.1 8.2 1.4 16.7 1.2 25-0.7 1.9 0.1 5.8-2 6.4-10 0.2-20 0.1-30-0.4 0.4-0.6 0.9-1.2 1.3-1.8-12.2 0.8-24.5 0.1-36.7-0.6-2.8-0.3-5 1.7-7.1 3.1-4.2 3.3-9.9 1.5-14.3-0.4-10.1-4.9-18.2-12.9-27.1-19.6-9.3-6.3-17.5-14-26.8-20.3-12.3-9-23.9-18.9-36.4-27.5-3.4-2.6-6.3-5.8-10.1-7.9-4.1-2.2-7-6.2-11.2-8.1-3.2-0.7-7.8-0.8-9.7 2.2-6.7 15.8-13.4 31.7-23.4 45.7-5.1 7.8-9.9 15.8-16.4 22.5-6 7-11.9 14.1-18.6 20.5-4.1 4.3-9.6 8.7-16 7.5-0.9-10.7 2-21.3 6-31.1 1.4-4 2.5-8.1 4.4-11.9 2.9-5.8 5.2-11.9 9.1-17 2.3-3.1 4.7-6.2 6.5-9.6 4.5-0.2 9-0.2 13.4-0.4-0.1-0.7-0.3-2.2-0.4-2.9-5.3 0.1-10.6 0.4-15.9 0-6.5-0.5-12-4.4-16.7-8.6-4.1-3.4-6.1-9-11.4-11 0.4 7.4 6.9 11.8 11.7 16.6 3.6 3.6 8.7 4.8 13.4 6.1-4.6 9.7-11.3 18.4-14.9 28.7-2.5 7.1-5.7 13.9-7.6 21.2-1.3 5.4-1.6 11-2 16.5-1.9 0.2-3.7 0.4-5.6 0.6-2.1-2.1-4-4.5-5-7.4-0.5-7.2-1-14.6 1.2-21.7 1.6-5.4 2.6-11 5.5-15.9 3.6-5.8 7.5-11.5 11.2-17.2-1.9-0.2-4.1-0.9-5.2 1.2-6.9 9.9-13.7 20.5-16 32.5-0.3 0.4-0.7 1.1-1 1.4-2.7 0.1-5.5-0.2-8.2-0.7-0.2-1.4-0.5-2.8-0.7-4.2-0.6 0.3-1.2 0.6-1.9 1-1.6-11.4 2.3-22.6 6.5-33.1 1.8-4.9 3-10 5.5-14.5 2.4-4.4 4.7-8.9 6.5-13.6 2-5.6 6.3-10 8.3-15.6 1.8-4.9 5.4-8.7 7.9-13.2 3.9-6.7 7.5-13.6 12.5-19.5 2-2.3 3.8-4.8 5.4-7.4-8.7-7.1-15-16.6-20.8-26.1-2.8-4.3-3.5-9.5-3.7-14.5 0.1-6 3.1-11.3 6.4-16m65.6 84.8c0 0.5 0.1 1.4 0.1 1.8 3.5 2.2 7 4.7 11.1 5.7 1.6-0.8 1.7-1.7 0.4-2.8-2.8-3.3-7-6.4-11.6-4.7z" fill="#FFCB99" stroke="#FFCB99"/>
	<path d="m344.8 260.4h4.1c-1.5 6-4 11.7-7.8 16.6 0-0.7-0.1-2-0.2-2.7-1 0.6-2 1.2-3 1.9 3.4-4.8 5.6-10.2 6.9-15.8z" fill="#342612" stroke="#342612"/>
	<path d="m532.6 272.3c0.9 2 2 3.8 2.8 5.8 0.4-0.3 1.2-0.8 1.6-1.1-1.9 2.6-4.3 4.9-6.7 7.2 0.7-4 1.4-7.9 2.3-11.9z" fill="#443626" stroke="#443626"/>
	<path d="m477.9 279.6c10.9-4.6 23.8-5.9 35-1.5 1.5 1.6 3 3.4 4.5 5-6.6 10-17.4 15.9-27.5 21.7-4.7 2.9-10.4 3.6-15.8 3.6-7.7 0-15.9 0.6-22.7-3.6-7.4-4.5-16-8.6-20-16.8 3.8-2.4 8-4.5 12.6-4.4 6.6 0 13.2-0.4 19.7 0.5 4.2 2.3 8.5 4.8 11.7 8.5 1.9 2.3 4.2 4.3 6.8 5.9-0.1-2 0.1-4.1-0.5-6.1-1.5-3.3-4.9-5.2-6.5-8.4 0-1.8 1.7-3 2.7-4.4z" fill="#CB0102" stroke="#CB0102"/>
	<path d="m512.8 278.1c1.8 0.8 3.8 1.5 5.2 3 0.6 2.4 0.3 4.9 0.2 7.4-6.8 6.9-14.7 12.5-22.7 17.9-5.5 3.1-11.9 4-17.8 6.4-6.6 1.3-13.4 0.3-20-0.4-2.7-2.3-6.4-2.9-9.6-4.3-4.8-1.9-8.4-5.8-12.6-8.5-3.5-2.3-6-5.7-8.8-8.8 1.6-0.8 3.1-1.7 4.6-2.6 4 8.2 12.6 12.3 20 16.8 6.8 4.2 15 3.6 22.7 3.6 5.4 0 11.1-0.7 15.8-3.6 10.1-5.9 20.9-11.8 27.5-21.7-1.5-1.9-2.9-3.6-4.5-5.2z" fill="#3E0907" stroke="#3E0907"/>
	<path d="m471.1 285.5c1.5-2.8 3.6-5.1 6.7-5.8-1 1.4-2.6 2.6-2.7 4.4 1.6 3.2 5 5.1 6.5 8.4 0.5 2 0.4 4 0.5 6.1-2.6-1.6-4.8-3.6-6.8-5.9-3.2-3.7-7.5-6.2-11.7-8.5 2.5 0.4 5 0.7 7.5 1.3z" fill="#4C0504" stroke="#4C0504"/>
	<path d="m565.6 309.9c2.2-0.3 4.4-0.9 6.6-0.8 3.9 2 7.7 4.3 11.6 6.3 5.1 2.6 9 6.9 13.3 10.6 4 3.3 7.2 7.5 10.3 11.6-1-0.3-1.9-0.6-2.8-0.9 1.8 3.2 3.4 6.5 4.7 10-4.3-5.1-7.4-11.1-12.3-15.7-2.6-2.5-5.4-4.6-8.1-6.9-6.7-6.4-15.9-8.9-23.3-14.2z" fill="#381E06" stroke="#381E06"/>
	<path d="m552.7 314.5c2.4-1.6 4.6-3.6 7.4-4.6 1.8-0.2 3.6-0.1 5.5-0.1 7.4 5.3 16.6 7.7 23.3 14.1 2.7 2.3 5.6 4.5 8.1 6.9 4.9 4.6 8 10.6 12.3 15.7 2.4 9.2 9.7 16.6 10.2 26.4 0.9 6.9-5 11.8-8.3 17.2-3.9 5-7.1 10.9-12.7 14.1-0.9-4.7-1.5-9.5-2.8-14.1-1.8-6.8-2.5-14-5.8-20.3-3.5-6.6-6.1-14-11.4-19.5-5.6-6.1-10.3-13.1-16.9-18.2-5.1-4.4-12-6.8-15.4-12.9 2.2-1.4 4.4-3 6.5-4.7z" fill="#FD9902" stroke="#FD9902"/>
	<path d="m543 321.1c2.1-3.7 5.9-5.3 9.7-6.6-2.1 1.6-4.3 3.3-6.5 4.9 3.4 6.1 10.3 8.5 15.4 12.9 6.6 5.1 11.3 12.1 16.9 18.2 5.3 5.5 7.8 12.9 11.4 19.5 3.3 6.3 4 13.5 5.8 20.3-0.7 6.2-0.5 12.4-0.8 18.6 0.1 2-1.9 2.8-3.2 3.8 1.8-2.5 3-5.5 2.6-8.7-0.6-7.2-2.4-14.2-3.1-21.4-0.6 0.2-1.2 0.4-1.8 0.7-2.2-10.1-6.4-19.9-12.7-28.2-5.9-7.9-12-16-20.1-21.7-4.3-2.8-8.1-6.1-12.6-8.6-1.7-1-3.6-0.6-5.4-0.3 0.2-0.5 0.5-1.5 0.7-2 1.3-0.4 2.5-0.9 3.7-1.4z" fill="#302402" stroke="#302402"/>
	<path d="m538.7 324.6c1.8-0.4 3.7-0.8 5.4 0.3 4.5 2.4 8.3 5.8 12.6 8.6 8.1 5.7 14.2 13.8 20.1 21.7 6.3 8.3 10.5 18 12.7 28.2 0.6-0.2 1.2-0.4 1.8-0.7 0.7 7.2 2.5 14.2 3.1 21.4 0.4 3.1-0.8 6.2-2.6 8.7-6.2 3.7-12.4 7.5-18.1 12-1.8 0.4-3.6 0.7-5.4 0.9-5.3-4.9-8.3-11.7-14.1-16 0.3 2 0.3 4.1 1.4 5.9 2.9 5.3 6.8 10.1 11 14.4 6.7 9 15 16.6 22.5 24.9 12.5 11.2 25.3 22.2 39.7 30.9-2.5 6.9-7.8 12.2-11.6 18.3-5.5 7.4-11.8 14.2-17.4 21.5-5.8 5.5-10.6 12-16.3 17.6-10.4 7.9-18.7 18.3-29.9 25.2-5.1 3.1-8.8 8-14.2 10.6-9 4.5-16.9 10.7-25.7 15.4-7.8 3-14.8 7.7-22.6 10.4-4.5 1.6-8.8 3.8-13.1 5.8-5.8 2.8-12.2 3.6-18.2 5.9-3.4 1.3-6.9 2.5-10.4 3.6-2.4-9.7-7.7-18.2-11.2-27.5-1.6-3.9-3.7-7.5-5.6-11.2-2.6-6.5-5.6-12.8-9.3-18.7-3.4-7.3-8.2-13.8-12.4-20.5-4.8-7.4-11-13.8-15.9-21.3-4.8-6.8-11.2-12.1-16.9-18.1-3.9-4.2-9-7.1-13.4-10.6-2.7-2.2-6.1-4.1-7.6-7.4-0.1-1.9 1.4-3.5 2-5.2 3.5-8.2 7.8-16.3 9.1-25.2 0.5 0.3 1.1 0.6 1.6 1-1.4-10.8 3-21.5 0.9-32.2-1.1-6.4-1.3-13-1.2-19.5-0.6-0.2-1.3-0.4-1.9-0.6-0.4-3.1-0.9-6.1-1.6-9.1-1.1-4.3-3.8-8.2-4-12.8 7.7-0.7 15.6-1.4 23.3 0.5 3.6 1.1 6.9-1.1 10.2-2.3 10.5-4.4 22.5-5.9 33.4-1.8 7.4 2.2 13.5 7.1 20.7 9.8 6.9 2.6 12.9 7.5 20.2 8.8 8.6 1.9 18.6 2.1 25.8-3.7 4.9-4 10.1-8 13.6-13.3 3.6-8.2 6.4-17.6 4.1-26.5-1.4-5.4-4-10.3-5.7-15.6 2.5-1.3 5.3-2 8-2.6 8.3-1.8 15.6-6.3 23.1-9.9z" fill="#CCCD33" stroke="#CCCD33"/>
	<path d="m432.5 325.1c8 0.2 15.8 2.6 23.4 4.9 3.2 1.4 6.4 2.9 10 2.9 7 0 14.3 0.9 21.1-1.7 1.9 0.4 3.8 1.1 5.5 2.1-11.2 3.5-23 1.6-34.5 2.2-13.1 3.5-26.1 8.9-39.9 7.9 0.4 1.4 0.9 2.7 1.4 4-2.1-2-4.3-4.4-7.5-4.2-5.3 0.1-10.7 0-15.5-2.6 8.1-0.4 16.3 0 24.4-0.4 10.4-0.5 19.8-5.7 30.2-5.9-5.5-4.2-12.4-4.9-18.8-6.8 0.1-0.6 0.2-1.8 0.2-2.4z" fill="#38281A" stroke="#38281A"/>
	<path d="m121.8 327.9c4.6-1.6 8.8 1.4 11.6 4.8 1.3 1.1 1.2 2-0.4 2.8-4-1-7.6-3.5-11.1-5.7 0-0.6 0-1.5-0.1-1.9z" fill="#32190A" stroke="#32190A"/>
	<path d="m458 335.5c11.5-0.7 23.3 1.3 34.5-2.2 3.1 4 6.2 8.5 6.8 13.7 0.5 4.4 0.4 8.9 0 13.4-1 6.7-6.4 12-12.4 14.4-9.9 3.8-20.9 3.4-31.1 1.4-4.3-0.8-8.2-2.9-12-4.9-4.6-1.3-9.5-1.4-14.2-1.7-2.1-7.8-5.1-15.5-10-22.1-0.5-1.3-1-2.7-1.4-4 13.7 0.9 26.7-4.5 39.8-8z" fill="#FFCB99" stroke="#FFCB99"/>
	<path d="m505.3 339.3c0.8-0.8 1.5-1.5 2.3-2.2 1.7 5.3 4.2 10.2 5.7 15.6 2.3 9-0.5 18.3-4.1 26.5-3.5 5.3-8.7 9.3-13.6 13.3-7.2 5.8-17.2 5.6-25.8 3.7-7.4-1.3-13.3-6.2-20.2-8.8-7.2-2.8-13.3-7.6-20.7-9.8l0.8-0.3c1.5-0.6 3-1.1 4.6-1.6 8.4 3.8 16.3 8.8 25 11.8 8.7 4.2 18.7 7.9 28.4 4.8 7.5-3 13.7-8.8 17.9-15.7 4.9-9.1 4.8-20.3 1.9-30-0.7-3-3-5.1-5.2-7.1-0.1-0.4-0.2-1.1-0.3-1.5 1.1 0.4 2.1 0.9 3.3 1.3z" fill="#342404" stroke="#342404"/>
	<path d="m502.3 339.5c2.2 2 4.5 4.1 5.2 7.1 2.9 9.8 3 20.9-1.9 30-4.2 6.9-10.4 12.7-17.9 15.7-9.7 3.1-19.7-0.6-28.4-4.8-8.8-3-16.6-8-25-11.8-1.5-0.8-3.1-1.6-4.6-2.4 0.5-0.1 1.6-0.2 2.1-0.3 3 0 6.2 0.1 8.9 1.4 3.8 1.7 7.1 4.6 11.3 5.2 7.3 1 14.7 0.6 22 0.7 7.8 0 16.9-0.7 22.3-7.2 4.5-5.8 8.5-12.7 8.2-20.2 0-3.6-1.1-7-2-10.4-0.1-0.7-0.2-2.2-0.2-3z" fill="#FA9905" stroke="#FA9905"/>
	<path d="m502.4 342.6c0.9 3.4 2 6.8 2 10.4 0.3 7.6-3.7 14.5-8.2 20.2-5.3 6.5-14.5 7.2-22.3 7.2-7.3-0.1-14.7 0.3-22-0.7-4.2-0.6-7.5-3.5-11.3-5.2-2.8-1.3-5.9-1.4-8.9-1.4 4-0.7 8-1.4 12-1.8 3.8 2 7.7 4.1 12 4.9 10.2 2 21.2 2.4 31.1-1.4 6.1-2.4 11.5-7.7 12.4-14.4 0.6-6.1 1.4-12 3.2-17.8z" fill="#3F280C" stroke="#3F280C"/>
	<path d="m46.9 357.8c5.2 2 7.3 7.5 11.4 11 4.7 4.2 10.2 8 16.7 8.6 5.3 0.5 10.6 0.1 15.9 0 0.1 0.7 0.3 2.2 0.4 2.9-4.5 0.2-9 0.2-13.4 0.4-1.8 3.4-4.2 6.5-6.5 9.6-3.9 5.2-6.2 11.3-9.1 17-1.9 3.8-3 7.9-4.4 11.9-4 9.8-6.8 20.5-6 31.1-3.3-1-6.6-1.9-9.9-2.9 1.9-0.2 3.7-0.4 5.6-0.6 0.3-5.5 0.7-11.1 2-16.5 1.9-7.3 5.1-14.1 7.6-21.2 3.6-10.2 10.3-18.9 14.9-28.7-4.7-1.4-9.8-2.5-13.4-6.1-4.9-4.7-11.4-9.1-11.8-16.5z" fill="#3B2B1A" stroke="#3B2B1A"/>
	<path d="m414.5 372.6c5.5-1 10.4 2.4 15.1 4.8l-0.8 0.3c-10.8-4.1-22.9-2.6-33.4 1.8-3.3 1.2-6.6 3.4-10.2 2.3-7.6-1.9-15.5-1.2-23.3-0.5l-0.1-0.8c8-0.4 16.1 0 24.1-0.2 5.3-0.1 9.9-2.8 14.9-4.2 4.6-1.4 9.1-2.6 13.7-3.5z" fill="#615F32" stroke="#615F32"/>
	<path d="m356.7 380.7c1.7-0.1 3.5-0.2 5.2-0.3l0.1 0.8c0.2 4.6 2.8 8.5 4 12.8 0.8 3 1.2 6.1 1.6 9.1 0.6 0.2 1.3 0.4 1.9 0.6-0.1 6.5 0.1 13.1 1.2 19.5 2.1 10.8-2.3 21.4-0.9 32.2-0.5-0.3-1.1-0.6-1.6-1-1.4 8.9-5.6 17-9.1 25.2-0.6-1.8-1.1-3.6-1.7-5.5 2.6-5.7 3.9-11.9 6.1-17.8 2.5-6.5 3.3-13.5 3-20.5-0.4-8.6 0.7-17.2-0.8-25.7-2.4-9.9-6.1-19.5-9-29.4z" fill="#4A3604" stroke="#4A3604"/>
	<path d="m328.7 381.1c9.3-1.1 18.7-0.1 28-0.4 2.9 9.9 6.6 19.5 8.9 29.5 1.5 8.5 0.5 17.2 0.8 25.7 0.3 7-0.5 14-3 20.5-2.2 5.9-3.4 12.1-6.1 17.8-1 2.2-2.3 4.2-3.3 6.4-6.5 0.1-12.5-2.5-18.6-4.4 0.4-0.1 1.2-0.5 1.6-0.6-5.1-0.8-10.3-1.3-15.3-2.2 2-7.2 6.9-13 10.5-19.4 3.7-6.3 5.4-13.5 6.8-20.5 0.1-0.5 0.3-1.6 0.4-2.1 2.8-8.4 2.1-17.4-0.4-25.8-1.9-6.8-3.9-13.7-7.7-19.7-1-1.5-1.8-3.1-2.6-4.8z" fill="#FD9902" stroke="#FD9902"/>
	<path d="m49.6 386.5c1-2.1 3.3-1.4 5.2-1.2-3.7 5.8-7.6 11.4-11.2 17.2-3 4.8-4 10.5-5.5 15.9-2.1 7-1.6 14.5-1.2 21.7-2.4-7.8-0.7-16.1-1-24.1-0.8 1-1.5 2-2.3 3.1 2.3-12.1 9.1-22.7 16-32.6z" fill="#372514" stroke="#372514"/>
	<path d="m330.3 392.7c0.1-2.3 0.5-4.5 1-6.7 3.8 6 5.8 12.9 7.7 19.7 0.5 8.6 0.3 17.2 0.4 25.8-0.1 0.5-0.3 1.6-0.4 2.1-0.9-1.5-1.9-3-2.7-4.6 0.2-8.3 0.9-16.9-1.2-25-1-4-3.1-7.6-4.8-11.3z" fill="#2C1504" stroke="#2C1504"/>
	<path d="m339 405.7c2.4 8.4 3.2 17.4 0.4 25.8-0.1-8.6 0.1-17.2-0.4-25.8z" fill="#704815" stroke="#704815"/>
	<path d="m554.2 409.7c5.8 4.2 8.8 11.1 14.1 16 1.8-0.3 3.6-0.6 5.4-0.9-2.3 1.8-4.7 3.6-7.1 5.3-4.3-4.3-8.1-9.1-11-14.4-1.1-1.9-1.1-4-1.4-6z" fill="#2F2C03" stroke="#2F2C03"/>
	<path d="m336.3 429c0.8 1.6 1.8 3.1 2.7 4.6-1.4 7.1-3 14.3-6.8 20.5-3.6 6.4-8.5 12.2-10.5 19.4 5.1 1 10.2 1.4 15.3 2.2-0.4 0.1-1.2 0.5-1.6 0.6-3.8-0.2-7.7-0.2-11.5-0.6s-6.8-3.1-9.6-5.4c2.5-1 4.7-2.6 6.1-4.9 5.2-7.6 9.2-16 12.7-24.5-8.7-1.3-17.5-1.1-26.2-2-1.5 9.4 1.4 18.6 4.7 27.3-2-2.8-4.2-5.6-4.7-9.1-1.1-6.3-2.5-12.6-2.2-19 4.7-0.1 9.3-0.4 13.9-1.5 5.1-1.3 10.4-0.7 15.6-1.1 2.1-0.7 1.4-4.5 2.1-6.5z" fill="#432308" stroke="#432308"/>
	<path d="m307 439c8.7 0.9 17.5 0.7 26.2 2-3.5 8.5-7.5 16.9-12.7 24.5-1.4 2.3-3.6 3.9-6.1 4.9-1-1.3-1.9-2.7-2.7-4.1-3.3-8.8-6.3-17.9-4.7-27.3z" fill="#CA6604" stroke="#CA6604"/>
	<path d="m628.7 485.8c0.9 1.2 1.8 2.5 2.6 3.7-0.3 0.6-0.9 1.7-1.2 2.3-1.5 2.9-3.2 5.5-5.2 8.1-3.3 4.1-5.6 8.9-9.1 12.9-3 3.4-5.8 6.9-8.5 10.5-4.7 6.2-10.7 11.3-15.7 17.2-5.7 6.6-12.7 12-19 18-7.1 6.7-15.2 12.1-22.8 18.1-5.4 4.1-11 7.9-17.1 11-6 3.2-11.2 7.9-17.7 10.3-8.9 4.6-17.9 8.7-26.9 13-6.9 3.2-14.3 4.9-21.3 7.8-4.7 2-9.7 3.2-14.8 3.3-0.9-0.6-1.8-1.3-2.6-1.9 3.5-1 6.9-2.3 10.4-3.6 5.9-2.3 12.4-3.2 18.2-5.9 4.3-2.1 8.6-4.2 13.1-5.8 7.9-2.7 14.9-7.4 22.6-10.4 8.8-4.7 16.8-10.9 25.7-15.4 5.4-2.5 9.1-7.5 14.2-10.6 11.2-6.9 19.5-17.3 29.9-25.2 5.6-5.7 10.4-12.1 16.3-17.6 5.7-7.3 11.9-14.2 17.4-21.5 3.7-6.1 9-11.4 11.5-18.3z" fill="#312202" stroke="#312202"/>
	<path d="m631.3 489.6c7.2 1.1 12.6 6.1 19 9 7.2 3.3 13.9 7.9 21.6 10.2 0 6.2-4.1 11.2-6.6 16.5-9.9 19.2-25.5 34.7-42.1 48.1-2.5 2.2-5.1 4.2-7.8 6.1-7.8 5.3-15.1 11.3-23.5 15.6 6.1-5.8 13.5-9.8 20.2-14.9 7.7-4.9 14.1-11.3 21-17.1s12.5-12.9 18.5-19.5c8-10 14.2-21.4 19.3-33.1-4-1.8-7.9-3.6-11.7-5.8-6.2-3.6-13.1-5.8-19-10-2.9-2.2-6.4-3.9-10.1-2.8 0.3-0.6 0.9-1.8 1.2-2.3z" fill="#8C580E" stroke="#8C580E"/>
	<path d="m630.1 491.9c3.7-1.1 7.2 0.7 10.1 2.8 5.9 4.2 12.8 6.4 19 10 3.8 2.1 7.7 4 11.7 5.8-5.1 11.7-11.3 23.1-19.3 33.1-6.1 6.6-11.6 13.7-18.5 19.5s-13.4 12.2-21 17.1c-6.6 5.1-14.1 9.1-20.2 14.9-2.4 1.5-4.8 3.1-7.2 4.7-4.7 3.1-10.1 5-14.6 8.4-4.6 3.5-10.4 4.9-15.3 7.8-8.1 4.9-17.1 7.8-25.3 12.6-8.8 3.6-17.1 8.2-26.2 11-3.6 1.2-7 2.8-10.4 4.5-5.1 2.7-11.2 2.8-16.2 5.8-6.6 3.9-14.1 6.7-21.9 6.6-0.2-3.4-0.3-6.9-1.2-10.2-1.8-6.3-2.2-12.9-3.8-19.3-0.8-1.9 1-3.3 2-4.7 5.1-0.1 10.1-1.3 14.8-3.3 7-3 14.4-4.6 21.3-7.8 9-4.3 18.1-8.4 26.9-13 6.5-2.4 11.7-7.1 17.7-10.3 6-3.1 11.7-6.9 17.1-11 7.6-6 15.8-11.4 22.8-18.1 6.3-6 13.3-11.4 19-18 5-5.9 11-11 15.7-17.2 2.7-3.6 5.5-7.1 8.5-10.5 3.5-4 5.9-8.7 9.1-12.9 2.2-2.8 4-5.5 5.4-8.3z" fill="#FE9901" stroke="#FE9901"/>
	<path d="m615.4 579.5c2.7-1.8 5.4-3.9 7.8-6.1 0.3 1 0.6 1.9 1 2.9-3.6 3.5-7.6 6.5-11.9 9.1-6.8 4-12.4 10-19.6 13.3-1.9 0.9-3.8 1.7-5.8 2.5-0.6-0.4-1.7-1.1-2.2-1.5 2.4-1.6 4.8-3.2 7.2-4.7 8.4-4.3 15.7-10.3 23.5-15.5z" fill="#351906" stroke="#351906"/>
	<path d="m624.2 576.3h2.6c1.1 3.8 2.2 7.7 2.5 11.6 0.2 1.7 0.1 3.6-1.3 4.9-7.8 2.3-15.8 3.4-23.7 5.4-3.8 0.8-7.9 2.2-11.6 0.5 7.3-3.3 12.8-9.3 19.6-13.3 4.3-2.6 8.2-5.6 11.9-9.1z" fill="#FACA9A" stroke="#FACA9A"/>
	<path d="m429.6 583.1c1-0.5 2-1 2.9-1.5 1.9 3.7 4.1 7.3 5.6 11.2 3.5 9.3 8.8 17.8 11.2 27.5 0.9 0.6 1.8 1.2 2.6 1.9-0.9 1.4-2.8 2.8-2 4.7 1.5 6.4 2 13 3.8 19.3 0.9 3.3 0.9 6.8 1.2 10.2 1.4 1.3 2.9 2.5 4.4 3.7-1.2 0.8-2.8 1.5-3.1 3-2 7.9-0.7 16.3-2.9 24.2-1.2 4.2-1.7 8.6-1.7 12.9-0.6 0.2-1.3 0.4-1.9 0.5-0.8 8.2-1.9 16.4-3.5 24.5-2.5 7.2-4.8 14.5-6.5 21.9-1.7 8.2-2.7 16.6-6.5 24.2-2.3 4.5-3.1 9.6-6.1 13.8-3.4 4.9-6.8 9.7-10.4 14.4-1.6 2-2.6 4.7-1.6 7.3 1.4 3.9 4.5 6.9 7 10.1-4.8 7.4-8.5 15.8-8.3 24.7-0.5-0.4-0.9-0.8-1.4-1.2-0.3 4.9-0.1 10.1-2.3 14.7-2.1 4.5-4.6 9.1-8.6 12.2-8.5 6.4-12.9 16.4-19.6 24.4-4.2 4.9-9.8 8.2-14.7 12.3-5 4-9.4 8.6-13.8 13.3-2.7 2.7-2.9 6.8-3.5 10.3 1.5 0 2.9 0.1 4.4 0.1l-4.5 1.8h-2.6c-4.3-0.3-8.6-0.8-12.9-0.9-0.1-0.7-0.4-2.2-0.6-2.9 3.1 0 6.3 0.1 9.4-0.3l0.2-0.8c2.2-9.1 8.4-16.9 15.5-22.7 7.2-5.1 14.8-9.9 20.1-17.1 3.1-3.7 5.5-7.8 7.8-12 3.3-6.3 10.5-9 14.2-14.9 2.1-2.8 2.8-6.4 3.5-9.8 1.2-5.8 2.6-11.5 4.6-17.1 1.2-3.6 2.6-7.3 2.7-11.1 0.4-5.5-2.7-10.5-2.5-16-0.2-5.4 3-10 6.5-13.8 3.3-3.6 5.3-8.1 7.5-12.3 4.8-9.1 8.7-19 9-29.5 0.4 0.4 0.8 0.8 1.2 1.1 0.9-4.5 2.6-8.9 3.3-13.5 1.1-7.1 3.1-14 3-21.3 0.6 0.2 1.2 0.4 1.8 0.5 2-10.7 5-21.3 6-32.2 1.6-9.2 2.9-18.5 1.5-27.8-0.9-5.8-1.9-11.5-3.2-17.2-1-4-1.3-8.1-1.3-12.2 0.2-3.6-2.2-6.5-3.9-9.6-2.8-4.7-3.3-10.2-5.8-15-1.9-3.8-3.7-7.7-4.6-11.8-0.2-1.9-0.4-4.1-0.6-6.2z" fill="#060809" stroke="#060809"/>
	<path d="m604.3 598.3c7.8-2 15.9-3.1 23.7-5.4-0.6 0.7-1.2 1.3-1.8 2 3-0.1 6 0 9 0 0.2 6.8 0 14-3.4 20.1-0.1-6.7 2.2-12.9 2.7-19.5-16.7 1.3-32 9.5-48.9 10 0.2 0.6 0.5 1.2 0.7 1.8-4.5 0.5-9.3 1.2-13.2 3.7-4.5 2.8-9.2 5.1-13.9 7.4-7.3 2.2-14.1 5.6-20.7 9.3-6.5 3.6-13.8 5.3-20 9.4 2.9 0.7 5.8 1.4 8.8 2.1-4.1 0.9-8.3 1.5-12.6 1.8-0.3 3.8-0.4 7.6-0.3 11.5-0.6 0.1-1.8 0.4-2.3 0.6-0.2-3.4-0.4-6.7-0.5-10.1-3.8 0-8.6-0.9-11.3 2.5-1.6 2.7-1.6 5.9-2.1 8.9-0.5-2.8-1.1-5.6-1.7-8.3-1.3 0.5-2.6 1-3.9 1.6-5.8 3.4-12.4 4.7-18.4 7.8-4.7 2.4-10 3.3-15 4.9-1.5-1.2-3-2.4-4.4-3.7 7.8 0 15.3-2.7 21.9-6.6 5-3 11-3.1 16.2-5.8 3.4-1.7 6.8-3.4 10.4-4.5 9.1-2.8 17.4-7.4 26.2-11 8.2-4.7 17.2-7.7 25.3-12.6 4.9-2.9 10.7-4.2 15.3-7.8 4.5-3.4 9.9-5.2 14.6-8.4 0.5 0.4 1.6 1.1 2.2 1.5 1.5 0.8 3 1.9 4.8 1.4 4.4-1.1 8.4-3.1 12.6-4.6z" fill="#1A180E" stroke="#1A180E"/>
	<path d="m585.6 605.5c16.8-0.5 32.2-8.7 48.9-10-0.5 6.6-2.8 12.9-2.7 19.5l-1.2 2.7c-8.9 1.9-17.9 3.1-26.8 4.6-9.8 1-19.1 4.3-28.9 5.4-8.4 1.8-17.1 2.4-25.5 4-4.8 0.6-9.7 1-14.4 2.4-2.8 0.8-5.7 1-8.6 0.6 4.9-2.6 10.2-4.5 15.1-7.2 5.8-3.3 12.1-5.6 17.8-9.2 4.7-2.3 9.4-4.6 13.9-7.4 3.9-2.5 8.6-3.2 13.2-3.7-0.3-0.6-0.5-1.2-0.8-1.7z" fill="#66CBFD" stroke="#66CBFD"/>
	<path d="m586.9 601.3c1.9-0.8 3.9-1.6 5.8-2.5 3.8 1.7 7.8 0.3 11.6-0.5-4.2 1.5-8.2 3.5-12.6 4.4-1.8 0.4-3.3-0.7-4.8-1.4z" fill="#9A8C73" stroke="#9A8C73"/>
	<path d="m538.6 627.6c6.6-3.7 13.4-7.1 20.7-9.3-5.7 3.6-12 5.9-17.8 9.2-4.9 2.8-10.1 4.6-15.1 7.2 2.9 0.4 5.8 0.3 8.6-0.6 4.7-1.3 9.5-1.8 14.4-2.4l0.8 0.8c-7.5 1.7-15.4 2.1-22.7 4.8 4.1 0.5 8.3 0.8 12.5 0.5h1.1c-5.2 1.6-10.6 3-16.1 2.9-3.2 0.3-7.5-0.3-9.3 3.1-0.5 3.2 0.9 6.5 0.8 9.7-1.1 1.1-2.4 2-3.6 3-1.5-4.1-2.1-8.4-2.2-12.7-2.4 0-4.9-0.2-7.3 0.5-2.8 3.4-1 8.3-2 12.3-0.5 2.2-3.9 1.4-4.3-0.5-0.8-2.5-1-5.2-1.4-7.8l-3.2-0.8c1.3-0.6 2.6-1.1 3.9-1.6 0.6 2.8 1.2 5.5 1.7 8.3 0.5-3 0.5-6.3 2.1-8.9 2.7-3.5 7.5-2.5 11.3-2.5 0.1 3.4 0.3 6.7 0.5 10.1 0.6-0.1 1.8-0.4 2.3-0.6-0.1-3.8 0-7.7 0.3-11.5 4.2-0.4 8.4-1 12.6-1.8-2.9-0.7-5.8-1.4-8.8-2.1 6.4-4 13.7-5.7 20.2-9.3z" fill="#42637B" stroke="#42637B"/>
	<path d="m603.8 622.3c8.9-1.5 17.9-2.7 26.8-4.6-0.8 3.5 1 7 0.7 10.5-0.4 3.9-1.3 7.8-1.5 11.7-0.5 6.4 0.2 12.7-0.2 19.1-0.1 3.1-1.9 5.7-3.3 8.3-2.1 3.7-3.5 7.8-4.6 11.9 0.2-3.6-0.3-7.6 1.8-10.7 2.2-3.6 5.2-7 5.3-11.5 0.5-11.3 0.7-22.6 0.2-33.9-6.3-0.4-12.4 0.7-18.6 1.7-1.9-1.3-4.1-2.3-6.6-2.5z" fill="#234255" stroke="#234255"/>
	<path d="m575 627.7c9.8-1.1 19.1-4.4 28.9-5.4 2.4 0.2 4.7 1.2 6.7 2.6-2.5 0.8-6.3-0.3-7.7 2.4-0.2 3.5 0.6 7 1 10.5h-3.4c-0.6-2.4-0.8-5-2.2-7.1-1.8-1.5-4.3-1.7-6.5-2.3-0.1 4-0.1 8-0.3 12.1-4-1.7-4.9-6-5.5-9.9-4.3-0.1-8.7-0.3-13-0.4 0.7-1 1.3-1.7 2-2.5z" fill="#111A2A" stroke="#111A2A"/>
	<path d="m610.5 624.8c6.1-1 12.3-2.1 18.6-1.7 0.5 11.3 0.3 22.6-0.2 33.9 0 4.5-3.1 7.9-5.3 11.5-2.1 3.2-1.6 7.1-1.8 10.7-0.3 12.3-0.4 24.5 0.4 36.8 0.5 10.3 0.2 20.7-0.3 31-0.5 10.4 0.3 20.8-0.9 31.1-0.8 6.6-0.3 13.3-0.2 19.9 0 3.4-0.1 7-1.6 10.1s-4 5.4-6.6 7.6c-5.7 4.3-11.5 9.1-14.1 16 0.7 0.4 2 1.2 2.7 1.6 3.1-4.8 6.9-9.2 11.3-12.8 4.1 4.1 0.2 9.5-0.4 14.2-1.2 8.4-3 16.8-2.9 25.4 0.1 13.4-1.1 27.2 3 40.2 2.1 7.7 6.4 14.6 9.5 21.9-3.2 2-6.5 3.9-9.6 6-6 4.3-13.3 6.2-19.1 10.8-4.9 3.8-10 7.4-14.8 11.3-5.3 4.1-12.2 5-18.6 6.3 0.4 0.3 0.7 0.7 1.1 1.1-6.7 1-12.8 4.2-19.6 5.2-6.5 1-12.3 4.8-18.9 5.3-7.3 0.7-14.6 0.7-21.9 0.1-4.2-8.4-3.6-18-3.5-27 0-6.2 1.2-12.2 2.9-18.1 0.5 0 1 0 1.5 0.1 2.6-6 7.1-10.9 10.8-16.3 3.7-5.2 6.4-10.9 10-16.1 3.4-4.7 4.1-10.6 5.7-16.1 1.2-4.6 2.9-9.1 4.5-13.5 1.8-5 1.8-10.5 3.4-15.5 2.3-7.4 2.7-15.2 4.6-22.7 2.8-9 2.2-18.6 2.5-27.9 0.4 3.1 0.8 6.2 1.1 9.3 0.3-8.5-0.2-17.3 2.4-25.5 1-7.2 2.7-14.4 3.4-21.6 0-9 0.6-18-0.6-26.9 0.4-1.9 0.7-3.9 1.8-5.5 4.4-1.2 9-1.3 13.5-0.6 3.9 0.6 8.1 2.6 11.9 0.5-1.8-1-3.5-1.9-5.3-2.8 0.3-0.5 0.5-1 0.8-1.5-6.2-0.1-12.3-0.6-18.5-0.2-4.6 0.2-8.6 2.7-12.9 4-3.8 1.1-8.3 1.7-10.6 5.3-3.4 4.7-6 9.9-9.9 14.2-3.8 4.2-5.5 9.7-8.7 14.3-3.8 5.1-4.3 11.8-8.1 16.8-5.2 7-4.9 16.1-8.3 23.8-2.1 4.9-2.9 10.3-3.8 15.5-0.4-1.4-0.9-2.7-1.3-4 1 10.3-4 19.8-7.4 29.2-1.9 5.6-5.3 10.6-9.4 14.9-0.8-4.8-0.1-11.3-5.5-13.5-0.3 8.6 4.3 16.7 3.2 25.5-1.3 9.8-0.5 19.7-1.5 29.6-0.5-0.4-0.9-0.8-1.4-1.2-0.2 3.1-0.7 6.3-2.2 9.1-1.8-6.5-5.8-12.1-10.5-16.8-0.1 3.2 0.2 6.6 2.3 9.3 3.5 4.7 6.1 10 8.6 15.3 1.6 3.3 3.9 6.2 5.3 9.6 1.4 3.5 1.3 7.4 1.4 11.1 0.4-1.3 0.8-2.7 1.1-4 1.3 11.5 1 23.1-1 34.5-4.6-0.3-8.9-1.8-12.9-3.9-8.2-4.2-17.5-5.7-26.6-5.5-9.8-0.1-19.9 1.3-29.4-1.6-5.3-1.5-10.9-1.7-15.8-4.3-3.6-1.8-7-4.4-9.2-7.8-2.9-4.4-7.5-7.2-11.9-9.8-3.7-2.3-8.2-1.8-12.4-1.7-1.5 0-3-0.1-4.4-0.1 0.6-3.6 0.7-7.6 3.5-10.3 4.4-4.6 8.8-9.3 13.8-13.3 4.9-4.1 10.5-7.4 14.7-12.3 6.7-8 11.1-18 19.6-24.4 4.1-3.1 6.5-7.7 8.6-12.2 2.2-4.6 2-9.8 2.3-14.7 0.5 0.4 0.9 0.8 1.4 1.2-0.2-9 3.5-17.4 8.3-24.7-2.6-3.2-5.6-6.1-7-10.1-1-2.6 0-5.3 1.6-7.3 3.6-4.7 7-9.5 10.4-14.4 2.9-4.2 3.8-9.3 6.1-13.8 3.8-7.5 4.9-16 6.5-24.2 1.7-7.4 4-14.7 6.5-21.9 1.6-8.1 2.8-16.3 3.5-24.5 0.6-0.2 1.2-0.4 1.9-0.5 0-4.4 0.5-8.7 1.7-12.9 2.2-7.9 0.9-16.3 2.9-24.2 0.4-1.5 1.9-2.2 3.1-3 5-1.6 10.3-2.5 15-4.9 5.9-3.1 12.6-4.4 18.4-7.8l3.2 0.8c0.4 2.6 0.5 5.3 1.4 7.8 0.4 1.9 3.8 2.7 4.3 0.5 1.1-4-0.8-8.9 2-12.3 2.4-0.7 4.9-0.5 7.3-0.5 0.1 4.3 0.7 8.6 2.2 12.7 1.2-1 2.5-1.9 3.6-3 0.2-3.3-1.3-6.5-0.8-9.7 1.7-3.4 6.1-2.8 9.3-3.1 5.5 0.1 10.8-1.2 16.1-2.9 15-2.4 29.9-5.4 45-7.4 0.6 3.9 1.5 8.2 5.5 9.9 0.2-4 0.2-8 0.3-12.1 2.2 0.6 4.7 0.8 6.5 2.3 1.4 2.1 1.5 4.7 2.2 7.1h3.4c-0.4-3.5-1.2-7-1-10.5 0.9-3.1 4.8-1.9 7.2-2.8m-46.8 15.8c0.3 5.3 0.1 10.6 1.2 15.8 2.4 6.8 1.8 14.2 0.6 21.1-1.8 8.6-3.8 17.3-7.6 25.2-1.8 3.9-5.2 6.9-6 11.2 5 0.6 7.4-4.3 9-8.1 2.5-6.7 5.8-13.1 7.1-20.2 2.3-8.4 1.2-17.1 1.5-25.7 0.3-6.4-1.3-12.6-2-18.8-1.3-0.1-2.6-0.3-3.8-0.5m-31.7 5.1c1.6 7.5 7.4 13.3 7.7 21.2 0.8 1.2 1.7 2.4 1.6 4 0.3 6.3 0.1 12.7-0.3 19-0.6-0.5-1.2-1.1-1.8-1.6 0.1 3 0.5 6.3-1 9.1-2 3.9-2.3 8.4-4.5 12.3-1.3 2.3-1.5 4.9-1.6 7.5 1.5-0.8 3.6-0.9 4.2-2.7 2.4-5.1 5.3-10.1 6.2-15.7 2.7-9.7 1.7-19.8 1.8-29.8 0.2-7.7-3.6-14.7-7.2-21.2-0.8-2.2-3.3-1.8-5.1-2.1m-101.1 168.5c0.3 2.6 1.8 4.9 4.2 6.1 4.4 2 9.3 2.1 14.1 1.9-0.1-1.3-0.1-2.6-0.2-3.9-6.5 0.5-11.9-3.7-18.1-4.1z" fill="#669ACC" stroke="#669ACC"/>
	<path d="m549.4 631.8c8.5-1.6 17.1-2.3 25.5-4-0.7 0.8-1.3 1.5-1.9 2.3 4.3 0.1 8.7 0.3 13 0.4-15.1 2-30 5-45 7.4h-1.1c4.6-1.9 9.5-2.6 14.3-4-1.3-0.5-2.7-0.9-4-1.4l-0.8-0.7z" fill="#254359" stroke="#254359"/>
	<path d="m527.5 637.3c7.3-2.7 15.2-3.1 22.7-4.8 1.3 0.4 2.7 0.9 4 1.4-4.8 1.3-9.7 2.1-14.3 4-4.1 0.2-8.2-0.1-12.4-0.6z" fill="#010E18" stroke="#010E18"/>
	<path d="m563.7 640.6c1.2 0.2 2.5 0.3 3.8 0.5 0.7 6.3 2.2 12.5 2 18.8-0.3 8.6 0.8 17.3-1.5 25.7-1.3 7.1-4.6 13.5-7.1 20.2-1.6 3.8-4.1 8.8-9 8.1 0.9-4.3 4.3-7.3 6-11.2 3.8-7.9 5.8-16.7 7.6-25.2 1.2-7 1.8-14.4-0.6-21.1-1.1-5.1-0.9-10.5-1.2-15.8z" fill="#172A3E" stroke="#172A3E"/>
	<path d="m532 645.7c1.8 0.3 4.3-0.1 5.2 2 3.6 6.6 7.4 13.5 7.2 21.2-0.1 9.9 0.8 20-1.8 29.8-0.9 5.6-3.8 10.6-6.2 15.7-0.6 1.8-2.8 2-4.2 2.7 0.1-2.6 0.3-5.2 1.6-7.5 2.1-3.9 2.5-8.4 4.5-12.3 1.5-2.8 1.1-6.1 1-9.1 0.6 0.5 1.2 1 1.8 1.6 0.5-6.3 0.6-12.7 0.3-19 0.1-1.5-0.8-2.8-1.6-4-0.3-7.8-6.2-13.6-7.8-21.1z" fill="#172634" stroke="#172634"/>
	<path d="m540 724c4.3-1.3 8.3-3.8 12.9-4 6.2-0.5 12.3 0.1 18.5 0.2-0.3 0.5-0.5 1-0.8 1.5 1.8 0.9 3.5 1.8 5.3 2.8-3.8 2.1-8 0.1-11.9-0.5-4.5-0.7-9.1-0.7-13.5 0.6-1.1 1.6-1.4 3.6-1.8 5.5-0.4-2.1-1-4.1-1.5-6.1-2.3 0-4.8-0.1-7.2 0z" fill="#0B1B2D" stroke="#0B1B2D"/>
	<path d="m430.9 814.2c6.3 0.4 11.6 4.6 18.1 4.1 0.1 1.3 0.1 2.6 0.2 3.9-4.7 0.2-9.7 0.1-14.1-1.9-2.4-1.2-3.9-3.5-4.2-6.1z" fill="#192D3E" stroke="#192D3E"/>
	<path d="m598.4 831.7c2.6-6.9 8.4-11.6 14.1-16 1 0.7 1.9 1.3 2.9 2l-3 2.7c-4.4 3.6-8.2 8-11.3 12.8-0.7-0.3-2.1-1.1-2.7-1.5z" fill="#122639" stroke="#122639"/>
	<path d="m615.3 817.8c0.8 0.9 1.8 1.8 1.4 3.2-1.4 7.7-4.2 15.1-4.6 23-0.3 6.3-0.7 12.7-1.3 19-0.9 9.4 0.8 18.7 1.2 28.1 0.2 7.9 3.4 15.2 7 22 1.3 2.7 2.9 5.3 3.4 8.3 0.3 1.8-1.5 3-2.5 4.3-2.6 0.8-5.3 1.5-8 2.3l9.6-6c-3.1-7.3-7.3-14.2-9.5-21.9-4.1-13-2.9-26.8-3-40.2-0.1-8.5 1.7-17 2.9-25.4 0.6-4.7 4.5-10.1 0.4-14.2 1-0.8 2-1.7 3-2.5z" fill="#3B536A" stroke="#3B536A"/>
	<path d="m617 849.7c1.4-5.6 2.4-11.3 3.1-17 0.2 7.3-0.7 14.5-1.9 21.7-0.7 4.8-0.5 9.7-0.5 14.6 0 6.2-0.5 12.5 0.8 18.6 0.9 4 1.3 8.2 1.7 12.3-0.6-2.5-1.2-4.9-1.7-7.4-0.4 0.4-0.8 0.7-1.2 1.1-0.1-1.8-0.3-3.5-0.4-5.3-0.3-12.9-0.3-25.8 0.1-38.6z" fill="#9CA49E" stroke="#9CA49E"/>
	<path d="m616.9 888.3c-3.1-12.7-3-26 0.1-38.6-0.4 12.8-0.4 25.7-0.1 38.6z" fill="#515954" stroke="#515954"/>
	<path d="m454.7 886.7c4.7 4.8 8.7 10.3 10.5 16.8 0.1 2.6 0.1 5.1 0.5 7.7-2.6-5.3-5.2-10.5-8.6-15.3-2.1-2.6-2.4-6-2.4-9.2z" fill="#152738" stroke="#152738"/>
	<path d="m303.7 925.1c13-2.8 26.6-2.5 39.7-0.3l-0.2 0.8c-3.1 0.3-6.3 0.3-9.4 0.3-10.3-0.6-20.7 0.4-31-0.6l0.9-0.2z" fill="#535450" stroke="#535450"/>
	<path d="m619.9 925.7c6.2-2.4 13-2.4 19.5-1.3 0.4 0.5 1.1 1.5 1.5 2-5.5-0.3-11.1-1.1-16.5 0.1-5.4 1.8-10 5.3-15.1 7.8-13.2 7.1-27.2 14.6-35.4 27.8-2.5 4.5-7.7-2-11 0.8-4.9 4-7.9 10-8.9 16.2-0.8 3.4-1.1 7.6-4.2 9.8-3.3 2.4-7.7 1.4-11.5 1.1 0-1.3 0-2.6-0.3-3.9 3.3-0.1 6.6-0.2 9.9-0.3 1.9-7.4 2.7-15.1 6.2-22-6.5 0.5-12.4 3.5-18.7 5-3.8 0.9-7.7 1.5-11.5 2.1 1.7 4.6 4.3 8.8 5.3 13.7 0.8 5.8-2.5 10.9-4.9 15.9-4.4 0.2-8.8-0.7-12.4-3.3-1-3.6-2.4-7.2-2.5-11 0.1-4.3 2.4-8.1 4.2-11.9-4.5-0.4-9-1-13.4-1.8-0.6 5.6-1.7 11.3-0.3 16.9 1.9 3.9 5.9 6.2 9 9 3.8 3.5 8.6 6.1 13.9 5.9 5.9 0.2 12.3 1.1 17.8-1.6 3.9-1.8 8.1-3.9 12.5-2.7 8.7 2.3 17.1 5.9 25.2 9.8 5.3 2.3 10.8 4.5 15.9 7.2 6.6 3.5 14.2 4.4 21.4 6 7.4 1.6 15 2.5 22.5 1.2 9.8-1.8 20.4-3.9 27.3-11.8 5.8-4.8 7.2-13.5 14.3-16.8 7.3-4.5 16.5-4.4 24.4-1.5 3.9 1.5 8.1 2 12.3 2-0.7-7.8-4.3-14.9-7.4-22 5 5.5 8 12.7 9 20 0.6 2.6-2 4-3.6 5.5-3-1-6.2-1.3-9.3-1.6-0.4-0.1-1.3-0.2-1.7-0.3-7.1-2.6-15.8-3.5-22.3 1.2-5 3.3-7 9-10.5 13.6-7 8.3-17.5 12.4-27.8 15-11.5 2.1-23.6 1.5-34.7-2.3-4.3-1.4-8.7-2.6-13-4-5.1-1.6-9.4-4.9-14.4-6.8-3.3-1.3-6.7-2-10-3-6.3-3.1-12.5-7-19.6-7.6-4.1-0.4-7.5 2.6-11 4.3-12 1.8-25-0.7-34.7-8.3-2.3-1.6-5-4.2-7.8-2.2-0.4-0.4-0.7-0.8-1-1.1 1.1-0.8 2.2-1.6 3.2-2.5-3-7.5-1.9-15.8-0.4-23.5 1.1-0.2 2.2-0.4 3.4-0.6-0.9-0.6-1.7-1.1-2.5-1.7 7.3 0.6 14.7 0.6 21.9-0.1 6.7-0.5 12.4-4.3 18.9-5.3 6.7-1 12.8-4.2 19.6-5.2-0.4-0.4-0.7-0.8-1.1-1.1 6.4-1.2 13.3-2.1 18.6-6.3 4.8-3.9 9.9-7.5 14.8-11.3 5.8-4.6 13.1-6.5 19.1-10.8 2.5-0.9 5.2-1.6 7.8-2.4m-102.4 50.6c-3.8 2.6-2.9 7.7-3 11.7 0.2 2.8-0.3 6.4 2.3 8.3 2 2 4.9 0.6 6.8-0.8 1.3-3.3 1-7 1-10.5-0.2-2.6 0.2-5.7-2-7.6-1.3-1.3-3.5-2.5-5.1-1.1z" fill="#340705" stroke="#340705"/>
	<path d="m267.1 934c11.1-5.6 23.5-7.4 35.7-8.8 10.3 1 20.7 0 31 0.6 0.1 0.7 0.4 2.2 0.6 2.9 4.3 0.1 8.6 0.6 12.9 0.9-3.8 0.3-7.6 1.2-11.2 2.5-3.3-1.3-6.8-2.3-10.4-2.2-5.3 0-10.5 0.1-15.7 0.3-5.8 0.1-11 3.3-16.8 3.5-8.3 0.5-16.7 2.3-24.1 6.2-6.9 3.6-14.2 6.7-20 12-5.5 5.2-11 10.5-15.1 16.9-2.4 3.6-4.4 7.5-6.6 11.3-1 1-2.1 2-3.2 3 1.3-3.6 3.2-6.8 4.8-10.3 1.1-1.9-0.7-3.7-1.4-5.3 5.2-9.9 13.1-18.4 22.6-24.4 5.1-3.7 10.6-7.3 16.9-9.1z" fill="#0F0303" stroke="#0F0303"/>
	<path d="m609.3 934.3c5.1-2.5 9.7-6 15.1-7.8 5.4-1.3 11-0.4 16.5-0.1 5.5 2.5 11.9 0.6 17.7 2.3 7.5 2.1 14.6 5.5 21.1 9.7 6.1 3.8 10.2 9.8 15.5 14.5 5.3 6.6 9.7 13.8 13.8 21.2 3.1 7.1 6.6 14.1 7.4 22-4.2 0-8.3-0.5-12.3-2-7.9-2.9-17.1-3-24.4 1.5-7.1 3.3-8.5 12.1-14.3 16.8-6.9 7.8-17.5 10-27.3 11.8-7.5 1.2-15.1 0.4-22.5-1.2-7.2-1.6-14.7-2.4-21.4-6-5.2-2.8-10.6-4.9-15.9-7.2-8.1-3.9-16.5-7.5-25.2-9.8-4.4-1.3-8.6 0.9-12.5 2.7-5.5 2.6-11.9 1.7-17.8 1.6 0.5-1.3 1-2.6 1.6-3.8 2.4-5 5.8-10.1 4.9-15.9-1-4.8-3.6-9.1-5.3-13.7 3.8-0.6 7.7-1.2 11.5-2.1 6.3-1.4 12.2-4.4 18.7-5-3.5 6.9-4.3 14.6-6.2 22-3.3 0.1-6.6 0.2-9.9 0.3 0.2 1.3 0.3 2.6 0.3 3.9 3.8 0.3 8.1 1.3 11.5-1.1 3.2-2.2 3.4-6.4 4.2-9.8 1-6.2 4-12.2 8.9-16.2 3.3-2.8 8.5 3.7 11-0.8 8.1-13.2 22.1-20.7 35.3-27.8z" fill="#A30100" stroke="#A30100"/>
	<path d="m354.3 927.8c4.1-0.1 8.7-0.6 12.4 1.7 4.4 2.7 9 5.5 11.9 9.8 2.3 3.5 5.6 6 9.2 7.8 0.2 1 0.5 1.9 0.7 2.9-0.7 0.1-2 0.2-2.7 0.3-1.3-0.8-2.5-1.6-3.7-2.5-3.3-3-5.5-8.3-10.6-8.5-1.5-0.5-2.9-1-4.4-1.5l-0.8-0.3c-2.8-1.1-5.8-1.8-8.8-2.3 0.1-1.7 1.2-3.7 0.1-5.2-2.6-0.5-5.3-0.5-7.9-0.5 1.6-0.5 3.1-1.1 4.6-1.7z" fill="#120509" stroke="#120509"/>
	<path d="m293.1 933.8c5.8-0.2 11-3.4 16.8-3.5 5.2-0.2 10.5-0.3 15.7-0.3 5.3 2.8 10.7 5.5 16.4 7.1 8 2 16.2 0.8 24.3 0.5l0.8 0.3c2 6.9 5.3 13.8 4.1 21.2-0.4 7-5.1 13.3-3.5 20.4 5-3.5 5.8-9.8 7.4-15.2 2.7-6.1 1.7-12.7 0.6-19 2.1 0.8 4.2 1.7 6.3 2.7 1.2 0.8 2.4 1.7 3.7 2.5 4.3 1.8 9 2.9 13 5.6 2.2 1.4 4.6 2.8 7.2 3.2 11.2 2.1 22.6 0.1 33.9 1.5-2.8 4.8-6 9.8-6.6 15.5-0.2 5.6 2.2 10.9 5 15.7 1.3 2 1.3 4.5 1.5 6.8-7.8 1.6-15.8 1.3-23.7 1-5.1-0.2-10.3-2.5-15.2-0.8-13.8 6.3-24.9 17.4-39.1 22.8-4.2 1.6-8.3 3.5-12.4 5.6-7.1 3.7-15.2 4.3-23 5.5-11.1 1.9-22.6 1.8-33.7 0.1-7.8-1-15.8-0.3-23.3-3.1-1.9-0.7-3.1-2.3-4.4-3.7-3.9-4.8-8.3-9-12-14-4.6-5.6-8.3-12.7-15.4-15.5-4.8-1.6-9.9-0.9-14.8-0.9-0.9-5.6 2.6-10.5 4.6-15.5 2.2-3.8 4.2-7.7 6.6-11.3 4.2-6.3 9.6-11.7 15.1-16.9 5.7-5.4 13.1-8.4 20-12 7.4-4 15.7-5.8 24.1-6.3z" fill="#A30100" stroke="#A30100"/>
	<path d="m325.7 929.9c3.6 0 7 1 10.4 2.2 3.6-1.3 7.4-2.3 11.2-2.5h2.6c2.6 0.1 5.3 0.1 7.9 0.5 1.1 1.5 0.1 3.5-0.1 5.2 3 0.4 5.9 1.1 8.8 2.3-8.1 0.3-16.3 1.4-24.3-0.5-5.9-1.7-11.3-4.3-16.5-7.2z" fill="#480303" stroke="#480303"/>
	<path d="m367.2 937.9c1.5 0.5 2.9 1 4.4 1.5 3.7 7.7 4.5 16.4 3.6 24.9-1.6 5.4-2.4 11.7-7.4 15.2-1.6-7.1 3.1-13.5 3.5-20.4 1.1-7.4-2.1-14.3-4.1-21.2z" fill="#2D0101" stroke="#2D0101"/>
	<path d="m371.6 939.4c5.1 0.2 7.3 5.5 10.6 8.5-2.1-1-4.2-1.8-6.3-2.7 1.1 6.3 2.1 13-0.6 19 0.7-8.4 0-17-3.7-24.8z" fill="#6A050C" stroke="#6A050C"/>
	<path d="m387.8 947.2c4.9 2.7 10.5 2.9 15.8 4.3 9.5 2.9 19.6 1.5 29.4 1.6 9.1-0.2 18.4 1.4 26.6 5.5 4 2.1 8.4 3.6 12.9 3.9-0.1 0.5-0.2 1.6-0.2 2.1-2.8 0-5.6-0.2-8.3-0.7-7.2-2.3-14.3-5.5-21.9-6-8.7-0.6-17.4-0.1-26.1-0.1-5.8 0-11.4-1.7-17.2-1.9-3.9-2.7-8.6-3.8-13-5.6 0.7-0.1 2-0.2 2.7-0.3-0.2-0.9-0.5-1.9-0.7-2.8z" fill="#27141C" stroke="#27141C"/>
	<path d="m398.8 955.9c5.8 0.2 11.4 1.9 17.2 1.9 8.7 0 17.4-0.5 26.1 0.1 7.6 0.5 14.7 3.7 21.9 6 0.1 0.5 0.2 1.4 0.3 1.8 0.2 5.4 1.9 10.7 1.8 16.2-1 4.6-5.1 7.8-8.4 10.8-5 4.4-11.8 4.8-18 6-0.1-2.3-0.2-4.8-1.5-6.8-2.7-4.8-5.1-10.1-5-15.7 0.7-5.7 3.8-10.7 6.6-15.5-11.3-1.4-22.7 0.6-33.9-1.5-2.5-0.5-4.9-1.9-7.1-3.3m44.8 6.7c-3 1.1-5.9 3.3-6.5 6.6-1.2 5.2-1.7 10.8-0.4 16 1 3.3 3.3 7.4 7.3 7.2 4.5 0.5 7.2-3.9 9.1-7.3 2.8-6.2 2.1-14.4-3-19.1-1.8-1.7-3.9-4.4-6.5-3.4z" fill="#9A0303" stroke="#9A0303"/>
	<path d="m443.6 962.6c2.6-1 4.7 1.7 6.5 3.3 5.1 4.8 5.8 13 3 19.1-1.9 3.4-4.6 7.8-9.1 7.3-4 0.3-6.4-3.8-7.3-7.2-1.3-5.3-0.8-10.8 0.4-16 0.6-3.2 3.5-5.4 6.5-6.5m-1.2 5.7c-1.7 0.9-2.9 2.7-2.9 4.7-0.2 4-0.4 8 0.4 11.9 1.2 3.7 7.1 4.6 8.6 0.7 1.4-4.4 1-9.1 0.6-13.6 0.3-3.3-4-5.5-6.7-3.7z" fill="#391607" stroke="#391607"/>
	<path d="m473 978c2.3-4.8 2.9-10.2 5-15.1-1 5.6-1.6 11.3-3.4 16.7-1.5 4.1-1.1 8.5-2.6 12.6-0.3-4.7-1.1-9.8 1-14.2z" fill="#4D3B0F" stroke="#4D3B0F"/>
	<path d="m464.2 965.8c2 3.8 3.4 7.9 3 12.3 0.2 5.5-3.5 10.3-3.2 15.8-5.1 2.1-9.7 5.5-14.9 7.3-7.3 3-15.4 2.1-23.1 2.3-7 0.1-14-0.3-21-0.2-7.3 0.1-12.6 5.7-18.7 9-5.9 3.2-10.9 7.8-17.2 10.2-6.2 2.4-11.3 7.2-17.8 8.8-6 1.7-12 3.5-18 5.3-8.9 2.2-18.2 1.9-27.3 1.9-8.7-0.1-17.4-0.1-26-2.1-6.1-0.4-12.2-2.4-17.1-6.2-2.3-2.1-4-4.7-6-7-3.8-4.9-8.8-8.8-11.7-14.3-2.6-4.8-7.4-8.1-12.5-9.8-3.7-1.2-7.6-0.1-11.2 1-0.7-1.8-2-3.6-1.3-5.6 0.9-3.8 2.4-7.5 3.8-11.2 1.1-1 2.2-2 3.2-3-2 5-5.5 9.9-4.6 15.5 4.9 0 10-0.7 14.8 0.9 7.1 2.8 10.8 9.9 15.4 15.5 3.7 4.9 8.1 9.2 12 14 1.3 1.4 2.5 3 4.4 3.7 7.4 2.7 15.5 2 23.3 3.1 11.1 1.8 22.6 1.8 33.7-0.1 7.8-1.2 15.9-1.8 23-5.5 4-2.1 8.1-4 12.4-5.6 14.3-5.4 25.4-16.5 39.1-22.8 5-1.8 10.2 0.5 15.2 0.8 7.9 0.4 15.9 0.7 23.7-1 6.2-1.1 13.1-1.6 18-6 3.4-3 7.5-6.1 8.4-10.8 0.1-5.5-1.6-10.8-1.8-16.2z" fill="#330903" stroke="#330903"/>
	<path d="m442.4 968.3c2.7-1.7 6.9 0.4 6.8 3.7 0.4 4.5 0.8 9.2-0.6 13.6-1.6 3.9-7.4 3-8.6-0.7-0.8-3.9-0.6-7.9-0.4-11.9-0.1-2 1.1-3.8 2.8-4.7z" fill="#FCFC69" stroke="#FCFC69"/>
	<path d="m500.2 972.3c4.4 0.9 8.9 1.4 13.4 1.8-1.8 3.8-4.1 7.6-4.2 11.9 0.1 3.8 1.5 7.4 2.5 11-1 0.4-2.1 0.8-3.1 1.2-3.1-2.8-7.1-5.2-9-9-1.3-5.6-0.3-11.3 0.4-16.9z" fill="#9F0203" stroke="#9F0203"/>
	<path d="m517.5 976.3c1.6-1.5 3.8-0.3 5.1 1.1 2.2 1.8 1.8 5 2 7.6-0.1 3.5 0.3 7.2-1 10.5-1.9 1.4-4.8 2.8-6.8 0.8-2.6-1.9-2.2-5.5-2.3-8.3 0.1-4-0.8-9 3-11.7z" fill="#FBFB68" stroke="#FBFB68"/>
	<path d="m449.1 1001.1c5.3-1.8 9.8-5.2 14.9-7.3-0.2 1.4-0.2 3-1.4 3.9-3.9 3.5-8.7 5.9-13.8 7.4-6 1.8-11.9 3.9-18.1 4.8-9.2 1.4-18.5 0.2-27.8 0.4-4.9 0-8.7 3.6-12.1 6.7-4.2 3.9-9.3 6.7-14 9.9-6 4.1-13.3 5.8-20.3 7.7-5.1 1.2-10.2 2.7-15.4 3.7-2.8 0.3-5.6 0-7.9-1.7 6-1.8 12-3.6 18-5.3 6.5-1.7 11.6-6.4 17.8-8.8 6.3-2.4 11.3-7 17.2-10.2 6-3.3 11.4-8.9 18.7-9 7-0.1 14 0.3 21 0.2 7.8-0.3 15.9 0.7 23.2-2.4z" fill="#C4C630" stroke="#C4C630"/>
	<path d="m497.5 997.5c2.9-2 5.5 0.6 7.8 2.2 9.7 7.5 22.6 10 34.7 8.3-1.4 0.7-2.8 1.5-4.2 2.2-5.7 1.1-11.4 1.3-17.2 1-8.4-1.8-15.8-7-21.1-13.7z" fill="#AAAB3B" stroke="#AAAB3B"/>
	<path d="m680.8 998.8c6.5-4.7 15.2-3.8 22.3-1.2-6.5 0.2-13.3-1.3-19.5 1.1-6 2.6-8.3 9.1-11.9 14.1-4.7 5.5-10.8 9.9-17.7 12.2-8 2.9-16.4 5.5-25.1 5.6-12.9-1.2-25.3-5.1-37.5-9.4-6.8-3.9-14.2-6.3-21-10 3.3 1 6.8 1.7 10 3 5 1.9 9.3 5.2 14.4 6.8 4.3 1.4 8.7 2.6 13 4 11.1 3.8 23.2 4.4 34.7 2.3 10.2-2.6 20.8-6.7 27.8-15 3.5-4.4 5.6-10.2 10.5-13.5z" fill="#7C7B1E" stroke="#7C7B1E"/>
	<path d="m508.8 998.2c1-0.4 2.1-0.8 3.1-1.2 3.6 2.6 8 3.5 12.4 3.3-0.6 1.3-1.1 2.5-1.6 3.8-5.3 0.2-10.1-2.4-13.9-5.9z" fill="#670908" stroke="#670908"/>
	<path d="m683.7 998.7c6.2-2.4 13-0.9 19.5-1.1 0.4 0.1 1.3 0.2 1.7 0.3 4.9 1.7 10.2 3.1 14 6.9-1.7 2.6-3.3 5.3-5.6 7.3-8.3 7.4-17.3 15-28.4 17.6-16.3 2.7-32.4 6.1-48.9 7.5-10.7-0.6-21.2-2.8-31.4-6-11.3-2.3-21.6-7.9-32.5-11.5-8.1-4-16.3-7.6-24.1-12.1-3.8 1.7-8 2.3-12.2 2.3 1.4-0.7 2.8-1.5 4.2-2.2 3.5-1.7 6.8-4.6 11-4.3 7.1 0.6 13.3 4.5 19.6 7.6 6.8 3.7 14.3 6.1 21 10 12.1 4.2 24.6 8.2 37.5 9.4 8.6-0.1 17-2.7 25.1-5.6 6.9-2.3 12.9-6.7 17.7-12.2 3.5-4.7 5.8-11.3 11.8-13.9z" fill="#CBCB2A" stroke="#CBCB2A"/>
	<path d="m704.9 998c3.1 0.4 6.3 0.6 9.3 1.6 2.8 1.2 6.8 3.3 5.3 7-2.2 4.8-7 7.7-10.7 11.3-8.5 7.9-19.4 13.4-31 14.9-16.3 1.8-32.3 7-48.9 5.5-8.8-0.6-17.1-3.8-25.6-5.7-10.5-2.4-20.1-7.3-30.2-10.7-8.3-3.7-16.4-7.9-24.6-11.9-3.8-0.4-7.4 1.3-11.1 1.8-6.2 1.3-12.7 1.5-18.8-0.6 5.7 0.2 11.5 0 17.2-1 4.2 0 8.3-0.6 12.2-2.3 7.8 4.5 16 8.1 24.1 12.1 10.9 3.6 21.2 9.2 32.5 11.5 10.2 3.1 20.7 5.4 31.4 6 16.4-1.4 32.6-4.8 48.9-7.5 11.1-2.6 20.1-10.2 28.4-17.6 2.3-2.1 4-4.8 5.6-7.3-3.8-4-9.1-5.4-14-7.1z" fill="#6C6C1B" stroke="#6C6C1B"/>
	<path d="m221.6 1e3c3.6-1.1 7.5-2.1 11.2-1 5.1 1.7 9.9 4.9 12.5 9.8 2.9 5.5 8 9.4 11.7 14.3 1.9 2.4 3.7 5 6 7 4.9 3.8 11 5.8 17.1 6.2 8.5 1.9 17.3 1.9 26 2.1 9.1 0 18.4 0.3 27.3-1.9 2.3 1.7 5.1 2.1 7.9 1.7-5.4 0.9-10.7 2-16.2 2.2-5.1 0.2-10.3-0.3-15.4 0.7-14.4 3.2-29.1 0.7-43.6-0.1-8.9-0.3-17.7-1.6-26.3-3.9-5.1-2.1-10.5-4.3-14.7-8-4.9-6.9-8.2-15.4-7.4-24 0-2.5 2.2-3.8 3.9-5.1z" fill="#CBCB29" stroke="#CBCB29"/>
	<path d="m509.8 1014.9c3.5 0.5 7 1.1 10.5 1.8 6.2 1.2 12.6 0.5 18.9 0.1-4.3 1.4-8.8 0.6-13.2 0.7-5.5-0.1-11.4 0.4-16.2-2.6z" fill="#4D3B0F" stroke="#4D3B0F"/>
	<path d="m618.9 1042.1c3.8 0.3 7.5 0.4 11.3 0.8-3.8-0.2-7.6-0.3-11.3-0.8z" fill="#CBCB29" stroke="#CBCB29"/>
</g>
</svg>